<?xml version="1.0" encoding="utf-8"?>
<!-- Generator: Adobe Illustrator 15.1.0, SVG Export Plug-In . SVG Version: 6.00 Build 0)  -->
<!DOCTYPE svg PUBLIC "-//W3C//DTD SVG 1.1//EN" "http://www.w3.org/Graphics/SVG/1.1/DTD/svg11.dtd">
<svg version="1.1" id="Layer_1" xmlns="http://www.w3.org/2000/svg" xmlns:xlink="http://www.w3.org/1999/xlink" x="0px" y="0px"
	 width="256px" height="256px" viewBox="0 0 256 256" enable-background="new 0 0 256 256" xml:space="preserve">
<g>
	<g>
		<line fill="#478BCA" x1="160" y1="0" x2="160" y2="256"/>
		<g>
			<line fill="none" stroke="#3576BC" stroke-width="0.25" stroke-miterlimit="10" x1="160" y1="0" x2="160" y2="3"/>
			
				<line fill="none" stroke="#3576BC" stroke-width="0.25" stroke-miterlimit="10" stroke-dasharray="6.0976,6.0976" x1="160" y1="9.098" x2="160" y2="249.951"/>
			<line fill="none" stroke="#3576BC" stroke-width="0.25" stroke-miterlimit="10" x1="160" y1="253" x2="160" y2="256"/>
		</g>
	</g>
	<g>
		<line fill="#478BCA" x1="192" y1="0" x2="192" y2="256"/>
		<g>
			<line fill="none" stroke="#3576BC" stroke-width="0.25" stroke-miterlimit="10" x1="192" y1="0" x2="192" y2="3"/>
			
				<line fill="none" stroke="#3576BC" stroke-width="0.25" stroke-miterlimit="10" stroke-dasharray="6.0976,6.0976" x1="192" y1="9.098" x2="192" y2="249.951"/>
			<line fill="none" stroke="#3576BC" stroke-width="0.25" stroke-miterlimit="10" x1="192" y1="253" x2="192" y2="256"/>
		</g>
	</g>
	<g>
		<line fill="#478BCA" x1="224" y1="0" x2="224" y2="256"/>
		<g>
			<line fill="none" stroke="#3576BC" stroke-width="0.25" stroke-miterlimit="10" x1="224" y1="0" x2="224" y2="3"/>
			
				<line fill="none" stroke="#3576BC" stroke-width="0.25" stroke-miterlimit="10" stroke-dasharray="6.0976,6.0976" x1="224" y1="9.098" x2="224" y2="249.951"/>
			<line fill="none" stroke="#3576BC" stroke-width="0.25" stroke-miterlimit="10" x1="224" y1="253" x2="224" y2="256"/>
		</g>
	</g>
	<g>
		<line fill="#478BCA" x1="32" y1="0" x2="32" y2="256"/>
		<g>
			<line fill="none" stroke="#3576BC" stroke-width="0.25" stroke-miterlimit="10" x1="32" y1="0" x2="32" y2="3"/>
			
				<line fill="none" stroke="#3576BC" stroke-width="0.25" stroke-miterlimit="10" stroke-dasharray="6.0976,6.0976" x1="32" y1="9.098" x2="32" y2="249.951"/>
			<line fill="none" stroke="#3576BC" stroke-width="0.25" stroke-miterlimit="10" x1="32" y1="253" x2="32" y2="256"/>
		</g>
	</g>
	<g>
		<line fill="#478BCA" x1="64" y1="0" x2="64" y2="256"/>
		<g>
			<line fill="none" stroke="#3576BC" stroke-width="0.25" stroke-miterlimit="10" x1="64" y1="0" x2="64" y2="3"/>
			
				<line fill="none" stroke="#3576BC" stroke-width="0.25" stroke-miterlimit="10" stroke-dasharray="6.0976,6.0976" x1="64" y1="9.098" x2="64" y2="249.951"/>
			<line fill="none" stroke="#3576BC" stroke-width="0.25" stroke-miterlimit="10" x1="64" y1="253" x2="64" y2="256"/>
		</g>
	</g>
	<g>
		<line fill="#478BCA" x1="96" y1="0" x2="96" y2="256"/>
		<g>
			<line fill="none" stroke="#3576BC" stroke-width="0.25" stroke-miterlimit="10" x1="96" y1="0" x2="96" y2="3"/>
			
				<line fill="none" stroke="#3576BC" stroke-width="0.25" stroke-miterlimit="10" stroke-dasharray="6.0976,6.0976" x1="96" y1="9.098" x2="96" y2="249.951"/>
			<line fill="none" stroke="#3576BC" stroke-width="0.25" stroke-miterlimit="10" x1="96" y1="253" x2="96" y2="256"/>
		</g>
	</g>
	<g>
		<line fill="#478BCA" x1="128" y1="0" x2="128" y2="256"/>
		<g>
			<line fill="none" stroke="#3576BC" stroke-width="0.25" stroke-miterlimit="10" x1="128" y1="0" x2="128" y2="3"/>
			
				<line fill="none" stroke="#3576BC" stroke-width="0.25" stroke-miterlimit="10" stroke-dasharray="6.0976,6.0976" x1="128" y1="9.098" x2="128" y2="249.951"/>
			<line fill="none" stroke="#3576BC" stroke-width="0.25" stroke-miterlimit="10" x1="128" y1="253" x2="128" y2="256"/>
		</g>
	</g>
	<g>
		<line fill="#478BCA" x1="0" y1="96" x2="256" y2="96"/>
		<g>
			<line fill="none" stroke="#3576BC" stroke-width="0.25" stroke-miterlimit="10" x1="0" y1="96" x2="3" y2="96"/>
			
				<line fill="none" stroke="#3576BC" stroke-width="0.25" stroke-miterlimit="10" stroke-dasharray="6.0976,6.0976" x1="9.098" y1="96" x2="249.951" y2="96"/>
			<line fill="none" stroke="#3576BC" stroke-width="0.25" stroke-miterlimit="10" x1="253" y1="96" x2="256" y2="96"/>
		</g>
	</g>
	<g>
		<line fill="#478BCA" x1="0" y1="64" x2="256" y2="64"/>
		<g>
			<line fill="none" stroke="#3576BC" stroke-width="0.25" stroke-miterlimit="10" x1="0" y1="64" x2="3" y2="64"/>
			
				<line fill="none" stroke="#3576BC" stroke-width="0.25" stroke-miterlimit="10" stroke-dasharray="6.0976,6.0976" x1="9.098" y1="64" x2="249.951" y2="64"/>
			<line fill="none" stroke="#3576BC" stroke-width="0.25" stroke-miterlimit="10" x1="253" y1="64" x2="256" y2="64"/>
		</g>
	</g>
	<g>
		<line fill="#478BCA" x1="0" y1="32" x2="256" y2="32"/>
		<g>
			<line fill="none" stroke="#3576BC" stroke-width="0.25" stroke-miterlimit="10" x1="0" y1="32" x2="3" y2="32"/>
			
				<line fill="none" stroke="#3576BC" stroke-width="0.25" stroke-miterlimit="10" stroke-dasharray="6.0976,6.0976" x1="9.098" y1="32" x2="249.951" y2="32"/>
			<line fill="none" stroke="#3576BC" stroke-width="0.25" stroke-miterlimit="10" x1="253" y1="32" x2="256" y2="32"/>
		</g>
	</g>
	<g>
		<line fill="#478BCA" x1="0" y1="224" x2="256" y2="224"/>
		<g>
			<line fill="none" stroke="#3576BC" stroke-width="0.25" stroke-miterlimit="10" x1="0" y1="224" x2="3" y2="224"/>
			
				<line fill="none" stroke="#3576BC" stroke-width="0.25" stroke-miterlimit="10" stroke-dasharray="6.0976,6.0976" x1="9.098" y1="224" x2="249.951" y2="224"/>
			<line fill="none" stroke="#3576BC" stroke-width="0.25" stroke-miterlimit="10" x1="253" y1="224" x2="256" y2="224"/>
		</g>
	</g>
	<g>
		<line fill="#478BCA" x1="0" y1="192" x2="256" y2="192"/>
		<g>
			<line fill="none" stroke="#3576BC" stroke-width="0.25" stroke-miterlimit="10" x1="0" y1="192" x2="3" y2="192"/>
			
				<line fill="none" stroke="#3576BC" stroke-width="0.25" stroke-miterlimit="10" stroke-dasharray="6.0976,6.0976" x1="9.098" y1="192" x2="249.951" y2="192"/>
			<line fill="none" stroke="#3576BC" stroke-width="0.25" stroke-miterlimit="10" x1="253" y1="192" x2="256" y2="192"/>
		</g>
	</g>
	<g>
		<line fill="#478BCA" x1="0" y1="160" x2="256" y2="160"/>
		<g>
			<line fill="none" stroke="#3576BC" stroke-width="0.25" stroke-miterlimit="10" x1="0" y1="160" x2="3" y2="160"/>
			
				<line fill="none" stroke="#3576BC" stroke-width="0.25" stroke-miterlimit="10" stroke-dasharray="6.0976,6.0976" x1="9.098" y1="160" x2="249.951" y2="160"/>
			<line fill="none" stroke="#3576BC" stroke-width="0.25" stroke-miterlimit="10" x1="253" y1="160" x2="256" y2="160"/>
		</g>
	</g>
	<g>
		<line fill="#478BCA" x1="0" y1="128" x2="256" y2="128"/>
		<g>
			<line fill="none" stroke="#3576BC" stroke-width="0.25" stroke-miterlimit="10" x1="0" y1="128" x2="3" y2="128"/>
			
				<line fill="none" stroke="#3576BC" stroke-width="0.25" stroke-miterlimit="10" stroke-dasharray="6.0976,6.0976" x1="9.098" y1="128" x2="249.951" y2="128"/>
			<line fill="none" stroke="#3576BC" stroke-width="0.25" stroke-miterlimit="10" x1="253" y1="128" x2="256" y2="128"/>
		</g>
	</g>
</g>
<g>
	<path fill="none" stroke="#3576BC" stroke-width="2" stroke-miterlimit="10" d="M190.863,192.005h-42.599l-54.013-74.606
		c-4.002,0.158-7.258,0.235-9.768,0.235c-1.021,0-2.118-0.019-3.295-0.059c-1.177-0.039-2.394-0.098-3.648-0.177v46.364
		c0,10.043,1.099,16.279,3.295,18.711c2.981,3.453,7.453,5.178,13.416,5.178h6.236v4.354H32.119v-4.354h6.001
		c6.746,0,11.571-2.195,14.474-6.59c1.648-2.432,2.472-8.197,2.472-17.299V60.679c0-10.041-1.1-16.278-3.295-18.71
		c-3.06-3.451-7.61-5.178-13.65-5.178h-6.001v-4.354H90.25c16.945,0,29.438,1.235,37.48,3.707c8.04,2.471,14.865,7.021,20.476,13.65
		c5.607,6.63,8.413,14.533,8.413,23.711c0,9.808-3.197,18.319-9.59,25.536c-6.396,7.219-16.299,12.317-29.713,15.298l32.949,45.775
		c7.531,10.514,14.003,17.496,19.416,20.947c5.413,3.453,12.474,5.648,21.182,6.59V192.005z M77.541,109.985
		c1.49,0,2.784,0.02,3.884,0.059c1.098,0.04,2.001,0.059,2.706,0.059c15.22,0,26.692-3.295,34.421-9.885
		c7.726-6.59,11.591-14.983,11.591-25.183c0-9.962-3.118-18.063-9.355-24.3c-6.236-6.237-14.494-9.355-24.771-9.355
		c-4.551,0-10.708,0.747-18.476,2.236V109.985z"/>
</g>
<g>
	<path fill="none" stroke="#3576BC" stroke-width="2" stroke-linecap="round" stroke-miterlimit="10" d="M41.3,31.361
		c-1.16,1.672-2.32,3.344-3.481,5.016"/>
	<path fill="none" stroke="#3576BC" stroke-width="2" stroke-linecap="round" stroke-miterlimit="10" d="M53.454,31.388
		c-1.847,2.661-3.693,5.321-5.539,7.982"/>
	<path fill="none" stroke="#3576BC" stroke-width="2" stroke-linecap="round" stroke-miterlimit="10" d="M65.661,31.336
		c-3.987,5.746-7.974,11.491-11.961,17.236"/>
	<path fill="none" stroke="#3576BC" stroke-width="2" stroke-linecap="round" stroke-miterlimit="10" d="M76.32,33.516
		c-7.117,10.255-14.234,20.511-21.352,30.767"/>
	<path fill="none" stroke="#3576BC" stroke-width="2" stroke-linecap="round" stroke-miterlimit="10" d="M77.522,49.716
		c-7.506,10.528-15.168,20.946-22.512,31.589"/>
	<path fill="none" stroke="#3576BC" stroke-width="2" stroke-linecap="round" stroke-miterlimit="10" d="M88.794,33.518
		c-1.9,2.822-3.829,5.626-5.776,8.417"/>
	<path fill="none" stroke="#3576BC" stroke-width="2" stroke-linecap="round" stroke-miterlimit="10" d="M78.103,66.353
		c-8.004,11.564-16.04,23.106-24.125,34.614"/>
	<path fill="none" stroke="#3576BC" stroke-width="2" stroke-linecap="round" stroke-miterlimit="10" d="M100.789,33.417
		c-1.811,2.639-3.622,5.278-5.436,7.916"/>
	<path fill="none" stroke="#3576BC" stroke-width="2" stroke-linecap="round" stroke-miterlimit="10" d="M78.425,83.151
		c-7.929,11.449-15.863,22.894-23.821,34.323"/>
	<path fill="none" stroke="#3576BC" stroke-width="2" stroke-linecap="round" stroke-miterlimit="10" d="M113.023,33.238
		c-2.345,3.373-4.688,6.746-7.03,10.12"/>
	<path fill="none" stroke="#3576BC" stroke-width="2" stroke-linecap="round" stroke-miterlimit="10" d="M77.863,101.682
		c-7.69,10.998-15.386,21.994-23.055,33.007"/>
	<path fill="none" stroke="#3576BC" stroke-width="2" stroke-linecap="round" stroke-miterlimit="10" d="M123.869,35.245
		c-2.827,4.158-5.664,8.31-8.509,12.456"/>
	<path fill="none" stroke="#3576BC" stroke-width="2" stroke-linecap="round" stroke-miterlimit="10" d="M76.834,120.883
		c-7.341,10.708-14.706,21.4-22.268,31.955"/>
	<path fill="none" stroke="#3576BC" stroke-width="2" stroke-linecap="round" stroke-miterlimit="10" d="M84.174,110.174
		c-1.546,2.254-3.091,4.508-4.636,6.763"/>
	<path fill="none" stroke="#3576BC" stroke-width="2" stroke-linecap="round" stroke-miterlimit="10" d="M134.163,38.26
		c-3.424,5.253-6.97,10.426-10.523,15.592"/>
	<path fill="none" stroke="#3576BC" stroke-width="2" stroke-linecap="round" stroke-miterlimit="10" d="M42.251,187.847
		c-1.062,1.529-2.123,3.059-3.185,4.59"/>
	<path fill="none" stroke="#3576BC" stroke-width="2" stroke-linecap="round" stroke-miterlimit="10" d="M78.479,135.644
		c-8.095,11.664-16.189,23.328-24.285,34.992"/>
	<path fill="none" stroke="#3576BC" stroke-width="2" stroke-linecap="round" stroke-miterlimit="10" d="M96.323,110.197
		c-1.931,2.745-3.867,5.484-5.813,8.218"/>
	<path fill="none" stroke="#3576BC" stroke-width="2" stroke-linecap="round" stroke-miterlimit="10" d="M142.658,43.118
		c-4.682,6.732-9.333,13.486-13.977,20.245"/>
	<path fill="none" stroke="#3576BC" stroke-width="2" stroke-linecap="round" stroke-miterlimit="10" d="M76.681,155.775
		c-8.342,12.021-16.684,24.041-25.025,36.063"/>
	<path fill="none" stroke="#3576BC" stroke-width="2" stroke-linecap="round" stroke-miterlimit="10" d="M111.014,106.301
		c-4.085,5.887-8.17,11.774-12.255,17.661"/>
	<path fill="none" stroke="#3576BC" stroke-width="2" stroke-linecap="round" stroke-miterlimit="10" d="M149.376,51.022
		c-6.594,9.5-13.187,19.001-19.78,28.502"/>
	<path fill="none" stroke="#3576BC" stroke-width="2" stroke-linecap="round" stroke-miterlimit="10" d="M77.682,171.875
		c-4.638,6.682-9.274,13.363-13.912,20.045"/>
	<path fill="none" stroke="#3576BC" stroke-width="2" stroke-linecap="round" stroke-miterlimit="10" d="M155.009,60.364
		c-16.791,24.021-33.025,48.428-49.974,72.338"/>
	<path fill="none" stroke="#3576BC" stroke-width="2" stroke-linecap="round" stroke-miterlimit="10" d="M82.349,182.687
		c-2.253,3.246-4.506,6.492-6.759,9.738"/>
	<path fill="none" stroke="#3576BC" stroke-width="2" stroke-linecap="round" stroke-miterlimit="10" d="M123.81,122.68
		c-4.192,6.032-8.37,12.073-12.523,18.13"/>
	<path fill="none" stroke="#3576BC" stroke-width="2" stroke-linecap="round" stroke-miterlimit="10" d="M157.313,74.684
		c-7.989,11.499-16.031,22.961-24.051,34.439"/>
	<path fill="none" stroke="#3576BC" stroke-width="2" stroke-linecap="round" stroke-miterlimit="10" d="M91.526,187.003
		c-1.29,1.859-2.581,3.719-3.871,5.576"/>
	<path fill="none" stroke="#3576BC" stroke-width="2" stroke-linecap="round" stroke-miterlimit="10" d="M129.605,132.132
		c-4.101,5.908-8.2,11.816-12.301,17.725"/>
	<path fill="none" stroke="#3576BC" stroke-width="2" stroke-linecap="round" stroke-miterlimit="10" d="M136.241,140.109
		c-3.963,5.711-7.927,11.422-11.89,17.133"/>
	<path fill="none" stroke="#3576BC" stroke-width="2" stroke-linecap="round" stroke-miterlimit="10" d="M142.12,149.177
		c-4.052,5.838-8.104,11.676-12.155,17.514"/>
	<path fill="none" stroke="#3576BC" stroke-width="2" stroke-linecap="round" stroke-miterlimit="10" d="M148.13,158.058
		c-3.94,5.678-7.882,11.357-11.822,17.035"/>
	<path fill="none" stroke="#3576BC" stroke-width="2" stroke-linecap="round" stroke-miterlimit="10" d="M155.135,165.503
		c-4.223,6.084-8.444,12.168-12.667,18.252"/>
	<path fill="none" stroke="#3576BC" stroke-width="2" stroke-linecap="round" stroke-miterlimit="10" d="M162.166,172.912
		c-4.351,6.27-8.7,12.537-13.051,18.807"/>
	<path fill="none" stroke="#3576BC" stroke-width="2" stroke-linecap="round" stroke-miterlimit="10" d="M169.598,179.742
		c-3.025,4.359-6.052,8.719-9.077,13.08"/>
	<path fill="none" stroke="#3576BC" stroke-width="2" stroke-linecap="round" stroke-miterlimit="10" d="M178.573,184.347
		c-1.983,2.859-3.967,5.717-5.95,8.576"/>
	<path fill="none" stroke="#3576BC" stroke-width="2" stroke-linecap="round" stroke-miterlimit="10" d="M189.365,186.335
		c-1.459,2.102-2.917,4.203-4.376,6.307"/>
</g>
<g>
	<g>
		<line fill="none" stroke="#3576BC" stroke-width="1.5" stroke-miterlimit="10" x1="224" y1="37.382" x2="224" y2="186.617"/>
		<g>
			<polygon fill="#3576BC" points="220.281,38.477 224.021,32 227.76,38.477 			"/>
		</g>
		<g>
			<polygon fill="#3576BC" points="220.281,185.523 224.021,192 227.76,185.523 			"/>
		</g>
	</g>
</g>
<g>
	<g>
		<line fill="none" stroke="#3576BC" stroke-width="1.5" stroke-miterlimit="10" x1="37.382" y1="224" x2="186.618" y2="224"/>
		<g>
			<polygon fill="#3576BC" points="38.477,227.718 32,223.98 38.477,220.24 			"/>
		</g>
		<g>
			<polygon fill="#3576BC" points="185.523,227.718 192,223.98 185.523,220.24 			"/>
		</g>
	</g>
</g>
<line fill="none" stroke="#3576BC" stroke-width="1.5" stroke-linecap="round" stroke-miterlimit="10" x1="144" y1="32" x2="240" y2="32"/>
<line fill="none" stroke="#3576BC" stroke-width="1.5" stroke-linecap="round" stroke-miterlimit="10" x1="240" y1="192" x2="202" y2="192"/>
<line fill="none" stroke="#3576BC" stroke-width="1.5" stroke-linecap="round" stroke-miterlimit="10" x1="192" y1="240" x2="192" y2="202"/>
<line fill="none" stroke="#3576BC" stroke-width="1.5" stroke-linecap="round" stroke-miterlimit="10" x1="32" y1="240" x2="32" y2="202"/>
<g>
	<path fill="#4167B1" d="M102.637,232.16c-0.103,0.457-0.191,0.843-0.266,1.155c-0.075,0.313-0.142,0.583-0.203,0.812
		c-0.061,0.229-0.115,0.43-0.161,0.603c-0.047,0.173-0.091,0.351-0.133,0.532s-0.086,0.381-0.133,0.595
		c-0.047,0.215-0.098,0.476-0.154,0.784c-0.038,0.205-0.08,0.415-0.126,0.63c-0.047,0.215-0.089,0.42-0.126,0.616
		c-0.038,0.195-0.073,0.375-0.105,0.539c-0.033,0.163-0.054,0.291-0.063,0.385c-0.019,0.225-0.038,0.408-0.056,0.553
		c-0.019,0.145-0.054,0.271-0.105,0.379s-0.128,0.2-0.231,0.279c-0.103,0.079-0.243,0.161-0.42,0.245h-0.35
		c-0.187,0-0.343-0.028-0.469-0.084s-0.189-0.196-0.189-0.42v-0.099c0.075-0.438,0.154-0.823,0.238-1.154
		c0.084-0.332,0.168-0.656,0.252-0.973c0.084-0.318,0.17-0.654,0.259-1.009s0.175-0.771,0.259-1.245
		c0.009-0.066,0.021-0.139,0.035-0.218c0.014-0.079,0.03-0.156,0.049-0.231c0.046-0.214,0.095-0.438,0.147-0.672
		c0.051-0.232,0.077-0.429,0.077-0.588c0-0.064-0.004-0.103-0.014-0.111c-0.131,0.027-0.275,0.111-0.434,0.252
		c-0.093,0.064-0.182,0.119-0.266,0.16c-0.084,0.043-0.177,0.063-0.28,0.063c-0.065,0-0.103-0.005-0.112-0.015
		c-0.121-0.018-0.245-0.125-0.371-0.321c-0.126-0.196-0.189-0.411-0.189-0.644c0-0.121,0.028-0.234,0.084-0.336
		c0.243-0.262,0.474-0.472,0.693-0.631c0.219-0.158,0.45-0.316,0.693-0.476c0.177-0.112,0.357-0.229,0.539-0.351
		c0.182-0.121,0.375-0.275,0.581-0.461c0.121-0.084,0.271-0.127,0.448-0.127c0.187,0,0.359,0.082,0.518,0.246
		c0.159,0.162,0.238,0.385,0.238,0.664c0,0.178-0.052,0.396-0.154,0.658V232.16z"/>
	<path fill="#4167B1" d="M110.525,238.397c-0.285,0.341-0.593,0.626-0.924,0.854c-0.332,0.229-0.691,0.418-1.078,0.566
		c-0.387,0.149-0.814,0.28-1.281,0.393c-0.243,0.064-0.474,0.109-0.693,0.133s-0.427,0.035-0.623,0.035
		c-0.719,0-1.279-0.168-1.68-0.504s-0.682-0.793-0.84-1.373c-0.047-0.186-0.084-0.371-0.112-0.553
		c-0.028-0.182-0.042-0.365-0.042-0.553c0-0.252,0.021-0.502,0.063-0.749s0.1-0.516,0.175-0.806
		c0.121-0.475,0.271-0.909,0.448-1.301c0.177-0.393,0.387-0.756,0.63-1.092c0.243-0.337,0.521-0.652,0.833-0.945
		c0.313-0.295,0.67-0.582,1.071-0.861c0.196-0.131,0.373-0.24,0.532-0.329s0.32-0.168,0.483-0.237
		c0.164-0.07,0.338-0.134,0.525-0.189c0.187-0.057,0.406-0.117,0.658-0.182h-0.014c0.187-0.047,0.345-0.07,0.476-0.07
		c0.187,0,0.348,0.044,0.483,0.133c0.135,0.089,0.221,0.23,0.259,0.427l-0.014-0.014c0.019,0.056,0.028,0.112,0.028,0.168
		c0,0.131-0.04,0.261-0.119,0.392c-0.08,0.131-0.182,0.25-0.308,0.357s-0.264,0.201-0.413,0.279
		c-0.149,0.08-0.294,0.133-0.434,0.162c-0.42,0.111-0.805,0.254-1.155,0.426c-0.35,0.174-0.702,0.441-1.057,0.806
		c-0.037,0.038-0.07,0.069-0.098,0.099c-0.028,0.027-0.061,0.055-0.098,0.084c-0.224,0.223-0.425,0.438-0.602,0.644
		c-0.177,0.205-0.29,0.415-0.336,0.63c0.336-0.196,0.684-0.385,1.043-0.566c0.359-0.183,0.726-0.344,1.099-0.484
		c0.373-0.139,0.756-0.252,1.148-0.336s0.784-0.125,1.176-0.125h0.182c0.392,0.019,0.714,0.098,0.966,0.238
		c0.252,0.139,0.471,0.387,0.658,0.741c0.149,0.299,0.224,0.626,0.224,0.979c0,0.458-0.136,0.948-0.406,1.471
		C111.088,237.638,110.81,238.056,110.525,238.397z M110.225,236.207c0-0.178-0.07-0.295-0.21-0.351
		c-0.14-0.056-0.313-0.084-0.518-0.084c-0.215,0-0.446,0.017-0.693,0.049c-0.248,0.033-0.483,0.073-0.707,0.119
		c-0.038,0.009-0.07,0.017-0.098,0.021c-0.028,0.006-0.061,0.008-0.098,0.008c-0.532,0.103-1.003,0.294-1.414,0.574
		c-0.411,0.279-0.784,0.574-1.12,0.881c-0.075,0.122-0.124,0.223-0.147,0.302c-0.023,0.079-0.035,0.151-0.035,0.217
		c0,0.131,0.049,0.233,0.147,0.308c0.098,0.075,0.217,0.133,0.357,0.176c0.14,0.041,0.287,0.07,0.441,0.084
		c0.154,0.014,0.287,0.021,0.399,0.021c0.224,0,0.527-0.049,0.91-0.147c0.383-0.098,0.77-0.263,1.162-0.496
		c0.177-0.112,0.359-0.236,0.546-0.371c0.187-0.135,0.357-0.273,0.511-0.413c0.154-0.14,0.282-0.278,0.385-0.413
		s0.163-0.254,0.182-0.357V236.207z"/>
	<path fill="#4167B1" d="M119.772,236.724c-0.177,0.346-0.38,0.66-0.609,0.945c-0.229,0.284-0.49,0.548-0.784,0.791
		c-0.294,0.242-0.623,0.467-0.987,0.672c-0.448,0.262-0.887,0.459-1.316,0.595s-0.84,0.203-1.232,0.203
		c-0.737,0-1.377-0.252-1.918-0.757c-0.42-0.345-0.712-0.729-0.875-1.154c-0.164-0.425-0.245-0.908-0.245-1.449
		c0-0.168,0.009-0.346,0.028-0.531c0.019-0.188,0.042-0.373,0.07-0.561c0.159-0.961,0.459-1.785,0.903-2.471
		c0.443-0.687,1.085-1.281,1.925-1.785c0.765-0.457,1.498-0.686,2.198-0.686c0.392,0,0.774,0.064,1.148,0.195
		c0.373,0.131,0.747,0.313,1.12,0.546c0.14,0.094,0.271,0.181,0.392,0.259c0.121,0.08,0.233,0.166,0.336,0.26
		c0.103,0.094,0.196,0.2,0.28,0.322c0.084,0.121,0.163,0.27,0.238,0.447c0.159,0.401,0.238,0.775,0.238,1.12
		c0,0.28-0.04,0.579-0.119,0.896c-0.079,0.318-0.184,0.654-0.315,1.008C120.109,236.001,119.95,236.378,119.772,236.724z
		 M119.143,234.582c0-0.289-0.054-0.564-0.161-0.826c-0.107-0.261-0.254-0.489-0.441-0.686c-0.187-0.195-0.406-0.359-0.658-0.49
		s-0.523-0.215-0.812-0.252c-0.065-0.009-0.133-0.016-0.203-0.021s-0.138-0.007-0.203-0.007c-0.308,0-0.611,0.047-0.91,0.14
		c-0.299,0.093-0.583,0.229-0.854,0.406c-0.271,0.177-0.516,0.394-0.735,0.651c-0.219,0.256-0.399,0.553-0.539,0.889
		c-0.196,0.494-0.294,0.934-0.294,1.316c0,0.578,0.196,1.092,0.588,1.539c0.214,0.243,0.431,0.413,0.651,0.512
		c0.219,0.098,0.506,0.156,0.861,0.175c0.037,0,0.072,0.002,0.105,0.007s0.068,0.007,0.105,0.007c0.392,0,0.747-0.075,1.064-0.224
		c0.317-0.149,0.653-0.373,1.008-0.672c0.298-0.243,0.546-0.472,0.742-0.687c0.196-0.214,0.359-0.499,0.49-0.854
		C119.077,235.189,119.143,234.88,119.143,234.582z"/>
	<path fill="#4167B1" d="M124.113,233.238c0.448-0.047,0.894-0.1,1.337-0.16c0.443-0.061,0.903-0.092,1.379-0.092
		c0.243,0,0.492,0.014,0.749,0.042c0.256,0.028,0.506,0.084,0.749,0.168c0.448,0.14,0.793,0.315,1.036,0.525s0.406,0.492,0.49,0.847
		c0.037,0.141,0.057,0.313,0.057,0.518c0.009,0.047,0.014,0.09,0.014,0.127s0,0.079,0,0.125c0,0.374-0.082,0.722-0.245,1.043
		c-0.163,0.322-0.401,0.629-0.714,0.918c-0.313,0.289-0.696,0.564-1.148,0.826c-0.453,0.261-0.968,0.518-1.547,0.77
		c-0.448,0.149-0.861,0.294-1.239,0.434c-0.378,0.141-0.777,0.229-1.197,0.267c-0.271,0.056-0.49,0.112-0.658,0.168l-0.028,0.028
		c-0.14,0.177-0.231,0.389-0.273,0.637c-0.042,0.247-0.063,0.496-0.063,0.748v0.477c0,0.094-0.014,0.182-0.042,0.266
		s-0.089,0.164-0.182,0.238c-0.299,0.225-0.602,0.336-0.91,0.336c-0.159,0-0.327-0.037-0.504-0.111
		c-0.103-0.057-0.173-0.115-0.21-0.176c-0.037-0.061-0.056-0.137-0.056-0.23c0.14-0.709,0.275-1.419,0.406-2.128
		c0.131-0.71,0.273-1.414,0.427-2.114c0.154-0.699,0.329-1.395,0.525-2.086c0.196-0.69,0.425-1.372,0.686-2.044
		c0.187-0.149,0.371-0.243,0.553-0.28c0.182-0.037,0.38-0.064,0.595-0.084H124.113z M124.799,237.844
		c0.364-0.131,0.742-0.28,1.134-0.448s0.763-0.363,1.113-0.588c0.35-0.225,0.658-0.474,0.924-0.749s0.455-0.581,0.567-0.917
		l-0.014-0.057c-0.131-0.177-0.371-0.305-0.721-0.385c-0.35-0.079-0.749-0.119-1.197-0.119c-0.271,0-0.558,0.012-0.861,0.035
		s-0.59,0.068-0.861,0.133c-0.187,0.028-0.348,0.062-0.483,0.099s-0.217,0.093-0.245,0.168c-0.215,0.448-0.38,0.927-0.497,1.435
		c-0.117,0.51-0.189,0.987-0.217,1.436l0.042,0.056c0.038,0.019,0.075,0.028,0.112,0.028c0.037,0,0.079,0,0.126,0
		c0.159,0,0.331-0.021,0.518-0.063c0.187-0.043,0.364-0.063,0.532-0.063H124.799z"/>
	<path fill="#4167B1" d="M137.818,232.776c0.131,0.056,0.247,0.131,0.351,0.224c0.102,0.094,0.186,0.206,0.252,0.336
		c0.064,0.131,0.098,0.267,0.098,0.406c-0.121,0.159-0.23,0.289-0.329,0.393c-0.099,0.103-0.191,0.193-0.28,0.273
		c-0.088,0.078-0.178,0.15-0.266,0.217c-0.089,0.064-0.189,0.14-0.301,0.224c-0.159,0.131-0.313,0.243-0.463,0.336l-0.336,0.237
		c-0.148,0.104-0.279,0.197-0.392,0.281s-0.222,0.17-0.329,0.258c-0.107,0.09-0.217,0.183-0.328,0.281
		c-0.113,0.098-0.243,0.212-0.393,0.342v0.028c0,0.131,0.065,0.302,0.195,0.511c0.131,0.211,0.346,0.507,0.645,0.89
		c0.205,0.149,0.378,0.321,0.518,0.518c0.141,0.196,0.281,0.458,0.42,0.784c0.01,0.037,0.015,0.074,0.015,0.111
		c0,0.029,0,0.057,0,0.084c0,0.141-0.023,0.253-0.069,0.337c-0.047,0.084-0.107,0.149-0.183,0.196
		c-0.075,0.046-0.153,0.076-0.237,0.09c-0.085,0.015-0.169,0.021-0.253,0.021h-0.266c-0.084,0-0.175-0.039-0.272-0.119
		c-0.099-0.078-0.191-0.17-0.281-0.272c-0.088-0.103-0.165-0.198-0.23-0.287s-0.104-0.142-0.111-0.161
		c-0.206-0.271-0.402-0.525-0.589-0.764c-0.187-0.237-0.443-0.473-0.771-0.706c-0.373,0.214-0.704,0.448-0.993,0.7
		c-0.29,0.252-0.519,0.457-0.687,0.615c-0.074,0.066-0.187,0.159-0.336,0.28c-0.148,0.122-0.311,0.243-0.482,0.364
		c-0.173,0.121-0.339,0.227-0.497,0.314c-0.159,0.089-0.28,0.133-0.364,0.133c-0.111,0-0.227-0.023-0.343-0.069
		c-0.117-0.047-0.22-0.104-0.308-0.175c-0.09-0.07-0.162-0.152-0.217-0.245c-0.057-0.093-0.085-0.187-0.085-0.28
		c0-0.047,0.009-0.098,0.028-0.154c0.047-0.158,0.128-0.287,0.245-0.385c0.116-0.098,0.245-0.198,0.385-0.301
		c0.009,0,0.052-0.03,0.126-0.092c0.074-0.061,0.156-0.13,0.245-0.209c0.089-0.08,0.173-0.152,0.252-0.217
		c0.079-0.066,0.128-0.107,0.147-0.127c0.224-0.158,0.394-0.287,0.511-0.385c0.116-0.098,0.222-0.189,0.315-0.273
		c0.093-0.084,0.188-0.174,0.286-0.272c0.099-0.098,0.235-0.226,0.413-0.385c-0.187-0.345-0.359-0.64-0.518-0.882
		c-0.159-0.242-0.301-0.465-0.428-0.666c-0.125-0.199-0.24-0.396-0.343-0.588c-0.103-0.19-0.196-0.408-0.28-0.65
		c0.01-0.225,0.037-0.408,0.084-0.553s0.105-0.257,0.176-0.336c0.07-0.08,0.146-0.136,0.23-0.168
		c0.084-0.033,0.168-0.049,0.252-0.049c0.104,0,0.196,0.016,0.28,0.049c0.084,0.032,0.145,0.059,0.183,0.076
		c0.037,0.028,0.084,0.078,0.14,0.147s0.114,0.143,0.175,0.217c0.061,0.075,0.117,0.149,0.168,0.224
		c0.051,0.075,0.091,0.137,0.119,0.183c0.187,0.327,0.378,0.642,0.574,0.944c0.195,0.305,0.415,0.586,0.658,0.848
		c0.279-0.195,0.486-0.348,0.623-0.455c0.135-0.107,0.261-0.207,0.377-0.301c0.117-0.094,0.252-0.205,0.406-0.336
		s0.395-0.322,0.721-0.574c0.178-0.121,0.339-0.247,0.483-0.378s0.28-0.252,0.406-0.364c0.126-0.111,0.242-0.203,0.35-0.273
		c0.107-0.069,0.212-0.104,0.315-0.104C137.558,232.692,137.688,232.72,137.818,232.776z"/>
</g>
<g>
	<path fill="#4167B1" d="M232.16,128.825c0.457,0.103,0.843,0.191,1.155,0.266s0.583,0.142,0.812,0.203
		c0.229,0.061,0.43,0.115,0.603,0.161c0.172,0.047,0.35,0.091,0.531,0.133s0.381,0.086,0.596,0.133s0.476,0.099,0.783,0.154
		c0.205,0.037,0.416,0.08,0.631,0.126c0.215,0.047,0.42,0.089,0.615,0.126c0.196,0.037,0.376,0.072,0.539,0.105
		c0.164,0.033,0.292,0.054,0.385,0.063c0.225,0.02,0.408,0.037,0.553,0.057c0.146,0.019,0.271,0.053,0.379,0.104
		s0.201,0.128,0.279,0.231c0.08,0.103,0.162,0.242,0.246,0.42v0.35c0,0.188-0.029,0.344-0.084,0.469
		c-0.057,0.127-0.197,0.189-0.42,0.189h-0.099c-0.438-0.074-0.823-0.154-1.155-0.238c-0.331-0.084-0.655-0.168-0.973-0.252
		s-0.653-0.17-1.008-0.259c-0.355-0.089-0.771-0.175-1.246-0.259c-0.065-0.01-0.138-0.021-0.217-0.035
		c-0.08-0.014-0.156-0.03-0.231-0.049c-0.214-0.047-0.438-0.096-0.672-0.147s-0.429-0.077-0.588-0.077
		c-0.065,0-0.103,0.005-0.112,0.014c0.028,0.131,0.112,0.275,0.252,0.435c0.065,0.093,0.119,0.183,0.161,0.267
		s0.063,0.177,0.063,0.279c0,0.065-0.005,0.104-0.015,0.112c-0.019,0.121-0.126,0.245-0.321,0.371
		c-0.197,0.126-0.411,0.188-0.645,0.188c-0.121,0-0.233-0.027-0.336-0.084c-0.262-0.242-0.471-0.473-0.63-0.693
		c-0.159-0.219-0.317-0.449-0.476-0.692c-0.113-0.177-0.229-0.356-0.351-0.539c-0.121-0.183-0.275-0.376-0.462-0.581
		c-0.084-0.121-0.126-0.271-0.126-0.448c0-0.187,0.081-0.359,0.245-0.518c0.163-0.159,0.385-0.238,0.664-0.238
		c0.178,0,0.397,0.052,0.658,0.154H232.16z"/>
	<path fill="#4167B1" d="M238.397,120.936c0.34,0.285,0.625,0.593,0.854,0.924c0.229,0.332,0.418,0.691,0.566,1.078
		c0.15,0.387,0.281,0.814,0.393,1.281c0.065,0.243,0.109,0.474,0.133,0.693s0.035,0.427,0.035,0.623c0,0.719-0.168,1.279-0.504,1.68
		s-0.793,0.682-1.372,0.84c-0.187,0.047-0.371,0.084-0.553,0.112c-0.183,0.028-0.366,0.042-0.554,0.042
		c-0.252,0-0.501-0.021-0.748-0.063c-0.248-0.042-0.516-0.1-0.806-0.175c-0.476-0.121-0.909-0.271-1.302-0.448
		s-0.756-0.387-1.092-0.63s-0.651-0.521-0.945-0.833c-0.294-0.313-0.581-0.67-0.861-1.071c-0.131-0.196-0.24-0.373-0.328-0.532
		c-0.089-0.159-0.168-0.32-0.238-0.483c-0.07-0.164-0.133-0.338-0.189-0.525c-0.056-0.187-0.116-0.406-0.182-0.658v0.014
		c-0.047-0.187-0.07-0.345-0.07-0.476c0-0.187,0.045-0.348,0.133-0.483c0.09-0.135,0.231-0.221,0.428-0.259l-0.014,0.014
		c0.055-0.019,0.111-0.028,0.168-0.028c0.131,0,0.261,0.04,0.392,0.119c0.13,0.08,0.249,0.182,0.356,0.308s0.201,0.264,0.28,0.413
		s0.133,0.294,0.161,0.434c0.111,0.42,0.254,0.805,0.427,1.155s0.44,0.702,0.806,1.057c0.037,0.037,0.069,0.07,0.098,0.098
		c0.027,0.028,0.056,0.061,0.084,0.098c0.224,0.224,0.438,0.425,0.645,0.602c0.205,0.177,0.414,0.29,0.629,0.336
		c-0.195-0.336-0.385-0.684-0.566-1.043s-0.344-0.726-0.483-1.099c-0.14-0.373-0.252-0.756-0.336-1.148s-0.126-0.784-0.126-1.176
		v-0.182c0.02-0.392,0.098-0.714,0.238-0.966c0.14-0.252,0.387-0.471,0.742-0.658c0.299-0.149,0.625-0.224,0.979-0.224
		c0.458,0,0.948,0.136,1.47,0.406C237.639,120.374,238.057,120.651,238.397,120.936z M236.206,121.237
		c-0.178,0-0.294,0.07-0.35,0.21c-0.057,0.14-0.084,0.313-0.084,0.518c0,0.215,0.016,0.446,0.049,0.693
		c0.033,0.248,0.072,0.483,0.119,0.707c0.009,0.038,0.016,0.07,0.021,0.098s0.007,0.061,0.007,0.098
		c0.104,0.532,0.295,1.003,0.574,1.414s0.574,0.784,0.882,1.12c0.122,0.075,0.222,0.124,0.302,0.147
		c0.078,0.023,0.151,0.035,0.217,0.035c0.131,0,0.232-0.049,0.308-0.147s0.133-0.217,0.175-0.357s0.07-0.287,0.084-0.441
		c0.014-0.154,0.021-0.287,0.021-0.399c0-0.224-0.049-0.527-0.147-0.91c-0.098-0.383-0.263-0.77-0.497-1.162
		c-0.111-0.177-0.235-0.359-0.371-0.546c-0.135-0.187-0.272-0.357-0.412-0.511c-0.141-0.154-0.278-0.282-0.414-0.385
		c-0.135-0.103-0.254-0.163-0.356-0.182H236.206z"/>
	<path fill="#4167B1" d="M236.724,111.689c0.346,0.177,0.66,0.38,0.945,0.609s0.549,0.49,0.791,0.784
		c0.242,0.294,0.467,0.623,0.672,0.987c0.262,0.448,0.46,0.887,0.596,1.316c0.135,0.429,0.203,0.84,0.203,1.232
		c0,0.737-0.252,1.377-0.757,1.918c-0.345,0.42-0.729,0.712-1.155,0.875c-0.424,0.164-0.907,0.245-1.449,0.245
		c-0.168,0-0.345-0.009-0.531-0.028c-0.187-0.019-0.373-0.042-0.561-0.07c-0.961-0.159-1.785-0.459-2.471-0.903
		s-1.281-1.085-1.785-1.925c-0.457-0.765-0.686-1.498-0.686-2.198c0-0.392,0.065-0.774,0.195-1.148
		c0.131-0.373,0.313-0.747,0.547-1.12c0.094-0.14,0.18-0.271,0.259-0.392c0.079-0.121,0.165-0.233,0.259-0.336
		c0.094-0.103,0.201-0.196,0.322-0.28s0.271-0.163,0.447-0.238c0.402-0.159,0.775-0.238,1.121-0.238c0.279,0,0.578,0.04,0.896,0.119
		c0.317,0.079,0.653,0.184,1.008,0.315C236.001,111.353,236.379,111.512,236.724,111.689z M234.582,112.319
		c-0.289,0-0.564,0.054-0.826,0.161c-0.261,0.107-0.489,0.254-0.687,0.441c-0.195,0.187-0.358,0.406-0.489,0.658
		s-0.215,0.523-0.252,0.812c-0.009,0.065-0.017,0.133-0.021,0.203c-0.006,0.07-0.008,0.138-0.008,0.203
		c0,0.308,0.047,0.611,0.141,0.91c0.093,0.299,0.229,0.583,0.406,0.854c0.177,0.271,0.394,0.516,0.65,0.735s0.553,0.399,0.889,0.539
		c0.495,0.196,0.934,0.294,1.316,0.294c0.578,0,1.092-0.196,1.54-0.588c0.243-0.214,0.413-0.431,0.511-0.651
		c0.098-0.219,0.156-0.506,0.176-0.861c0-0.037,0.002-0.072,0.006-0.105c0.006-0.033,0.008-0.068,0.008-0.105
		c0-0.392-0.075-0.747-0.225-1.064c-0.148-0.317-0.373-0.653-0.672-1.008c-0.242-0.298-0.471-0.546-0.686-0.742
		c-0.215-0.196-0.5-0.359-0.854-0.49C235.188,112.384,234.881,112.319,234.582,112.319z"/>
	<path fill="#4167B1" d="M233.237,107.349c-0.046-0.448-0.1-0.894-0.16-1.337c-0.061-0.443-0.092-0.903-0.092-1.379
		c0-0.243,0.015-0.492,0.043-0.749c0.027-0.256,0.084-0.506,0.168-0.749c0.14-0.448,0.314-0.793,0.525-1.036
		c0.209-0.242,0.492-0.406,0.846-0.49c0.141-0.037,0.313-0.056,0.519-0.056c0.047-0.009,0.089-0.014,0.126-0.014s0.08,0,0.126,0
		c0.374,0,0.722,0.082,1.043,0.245c0.322,0.164,0.628,0.401,0.917,0.714c0.289,0.313,0.564,0.696,0.826,1.148
		s0.518,0.968,0.77,1.547c0.15,0.448,0.295,0.861,0.435,1.239s0.229,0.777,0.267,1.197c0.055,0.271,0.111,0.49,0.168,0.658
		l0.027,0.028c0.178,0.14,0.39,0.231,0.637,0.273c0.248,0.042,0.497,0.063,0.749,0.063h0.476c0.094,0,0.183,0.014,0.267,0.042
		s0.163,0.089,0.237,0.182c0.225,0.299,0.337,0.602,0.337,0.91c0,0.159-0.038,0.327-0.112,0.504
		c-0.056,0.103-0.114,0.173-0.175,0.21c-0.062,0.037-0.138,0.056-0.231,0.056c-0.709-0.14-1.418-0.275-2.127-0.406
		c-0.71-0.131-1.414-0.273-2.115-0.427c-0.699-0.154-1.395-0.329-2.086-0.525c-0.689-0.196-1.371-0.425-2.043-0.686
		c-0.15-0.187-0.243-0.371-0.281-0.553c-0.037-0.182-0.064-0.38-0.084-0.595V107.349z M237.845,106.663
		c-0.131-0.364-0.281-0.742-0.449-1.134s-0.363-0.763-0.588-1.113c-0.224-0.35-0.473-0.658-0.748-0.924s-0.582-0.455-0.918-0.567
		l-0.056,0.014c-0.177,0.131-0.306,0.371-0.385,0.721s-0.119,0.749-0.119,1.197c0,0.271,0.012,0.558,0.035,0.861
		s0.067,0.59,0.133,0.861c0.028,0.187,0.062,0.348,0.099,0.483s0.093,0.217,0.168,0.245c0.447,0.215,0.926,0.38,1.435,0.497
		s0.987,0.189,1.435,0.217l0.057-0.042c0.019-0.038,0.027-0.075,0.027-0.112c0-0.037,0-0.079,0-0.126
		c0-0.159-0.021-0.331-0.063-0.518c-0.042-0.187-0.063-0.364-0.063-0.532V106.663z"/>
	<path fill="#4167B1" d="M232.776,93.643c0.056-0.131,0.131-0.248,0.224-0.35s0.206-0.187,0.336-0.252
		c0.131-0.065,0.267-0.098,0.406-0.098c0.159,0.122,0.289,0.231,0.392,0.329c0.104,0.098,0.193,0.191,0.273,0.28
		c0.079,0.089,0.151,0.178,0.217,0.266c0.065,0.089,0.141,0.189,0.225,0.301c0.131,0.159,0.242,0.313,0.336,0.462l0.237,0.336
		c0.103,0.149,0.196,0.28,0.28,0.392c0.084,0.112,0.17,0.222,0.259,0.329c0.089,0.107,0.183,0.217,0.28,0.329
		c0.098,0.112,0.213,0.243,0.343,0.392h0.028c0.131,0,0.301-0.065,0.511-0.196c0.21-0.131,0.507-0.345,0.89-0.644
		c0.148-0.206,0.321-0.378,0.518-0.518c0.195-0.14,0.457-0.28,0.783-0.42c0.038-0.009,0.075-0.014,0.112-0.014
		c0.028,0,0.056,0,0.084,0c0.14,0,0.253,0.023,0.337,0.07c0.084,0.047,0.148,0.107,0.195,0.182s0.077,0.154,0.091,0.238
		c0.015,0.084,0.021,0.168,0.021,0.252v0.266c0,0.084-0.039,0.175-0.118,0.273c-0.079,0.098-0.171,0.191-0.272,0.28
		c-0.104,0.089-0.199,0.166-0.287,0.231c-0.09,0.065-0.143,0.103-0.162,0.112c-0.27,0.206-0.524,0.401-0.763,0.588
		c-0.237,0.187-0.474,0.443-0.706,0.77c0.214,0.373,0.447,0.705,0.699,0.994c0.252,0.29,0.457,0.518,0.616,0.686
		c0.065,0.075,0.159,0.187,0.28,0.336c0.121,0.149,0.242,0.311,0.363,0.483c0.121,0.172,0.227,0.338,0.315,0.497
		c0.089,0.159,0.133,0.28,0.133,0.364c0,0.112-0.023,0.227-0.069,0.343c-0.047,0.117-0.105,0.22-0.176,0.308
		c-0.07,0.089-0.151,0.161-0.244,0.217c-0.094,0.056-0.188,0.084-0.281,0.084c-0.046,0-0.098-0.009-0.153-0.028
		c-0.159-0.046-0.287-0.128-0.386-0.245c-0.098-0.116-0.197-0.245-0.301-0.385c0-0.009-0.029-0.051-0.091-0.126
		c-0.061-0.075-0.13-0.156-0.21-0.245c-0.079-0.088-0.151-0.172-0.217-0.252c-0.065-0.079-0.107-0.128-0.126-0.147
		c-0.159-0.224-0.287-0.394-0.386-0.511c-0.098-0.116-0.188-0.221-0.272-0.315c-0.084-0.093-0.175-0.189-0.272-0.287
		c-0.098-0.098-0.227-0.236-0.385-0.413c-0.346,0.187-0.64,0.359-0.883,0.518c-0.242,0.159-0.464,0.301-0.665,0.427
		c-0.2,0.126-0.396,0.24-0.588,0.343c-0.19,0.103-0.408,0.196-0.651,0.28c-0.224-0.009-0.408-0.037-0.553-0.084
		c-0.145-0.046-0.256-0.105-0.336-0.175c-0.079-0.07-0.135-0.147-0.168-0.231c-0.032-0.084-0.049-0.168-0.049-0.252
		c0-0.103,0.017-0.196,0.049-0.28c0.033-0.084,0.059-0.145,0.077-0.182c0.028-0.037,0.077-0.084,0.147-0.14
		c0.069-0.056,0.143-0.114,0.217-0.175c0.074-0.061,0.148-0.117,0.224-0.168s0.136-0.091,0.183-0.119
		c0.326-0.187,0.641-0.378,0.944-0.574c0.304-0.196,0.586-0.416,0.847-0.658c-0.195-0.28-0.348-0.487-0.455-0.623
		c-0.106-0.135-0.207-0.261-0.301-0.378c-0.093-0.117-0.205-0.252-0.336-0.406c-0.131-0.154-0.322-0.395-0.574-0.721
		c-0.121-0.177-0.246-0.338-0.377-0.483s-0.252-0.28-0.365-0.406c-0.111-0.126-0.202-0.242-0.272-0.35
		c-0.069-0.107-0.104-0.212-0.104-0.315C232.692,93.904,232.72,93.774,232.776,93.643z"/>
</g>
</svg>
