<?xml version="1.0" encoding="utf-8"?>
<!-- Generator: Adobe Illustrator 15.1.0, SVG Export Plug-In . SVG Version: 6.00 Build 0)  -->
<!DOCTYPE svg PUBLIC "-//W3C//DTD SVG 1.1//EN" "http://www.w3.org/Graphics/SVG/1.1/DTD/svg11.dtd">
<svg version="1.1" id="Layer_1" xmlns="http://www.w3.org/2000/svg" xmlns:xlink="http://www.w3.org/1999/xlink" x="0px" y="0px"
	 width="256px" height="256px" viewBox="0 0 256 256" enable-background="new 0 0 256 256" xml:space="preserve">
<rect fill="#4167B1" width="256" height="256"/>
<g>
	<g>
		<line fill="#478BCA" x1="160" y1="0" x2="160" y2="256"/>
		<g>
			<line fill="none" stroke="#FFFFFF" stroke-width="0.25" stroke-miterlimit="10" x1="160" y1="0" x2="160" y2="3"/>
			
				<line fill="none" stroke="#FFFFFF" stroke-width="0.25" stroke-miterlimit="10" stroke-dasharray="6.0976,6.0976" x1="160" y1="9.098" x2="160" y2="249.951"/>
			<line fill="none" stroke="#FFFFFF" stroke-width="0.25" stroke-miterlimit="10" x1="160" y1="253" x2="160" y2="256"/>
		</g>
	</g>
	<g>
		<line fill="#478BCA" x1="192" y1="0" x2="192" y2="256"/>
		<g>
			<line fill="none" stroke="#FFFFFF" stroke-width="0.25" stroke-miterlimit="10" x1="192" y1="0" x2="192" y2="3"/>
			
				<line fill="none" stroke="#FFFFFF" stroke-width="0.25" stroke-miterlimit="10" stroke-dasharray="6.0976,6.0976" x1="192" y1="9.098" x2="192" y2="249.951"/>
			<line fill="none" stroke="#FFFFFF" stroke-width="0.25" stroke-miterlimit="10" x1="192" y1="253" x2="192" y2="256"/>
		</g>
	</g>
	<g>
		<line fill="#478BCA" x1="224" y1="0" x2="224" y2="256"/>
		<g>
			<line fill="none" stroke="#FFFFFF" stroke-width="0.25" stroke-miterlimit="10" x1="224" y1="0" x2="224" y2="3"/>
			
				<line fill="none" stroke="#FFFFFF" stroke-width="0.25" stroke-miterlimit="10" stroke-dasharray="6.0976,6.0976" x1="224" y1="9.098" x2="224" y2="249.951"/>
			<line fill="none" stroke="#FFFFFF" stroke-width="0.25" stroke-miterlimit="10" x1="224" y1="253" x2="224" y2="256"/>
		</g>
	</g>
	<g>
		<line fill="#478BCA" x1="32" y1="0" x2="32" y2="256"/>
		<g>
			<line fill="none" stroke="#FFFFFF" stroke-width="0.25" stroke-miterlimit="10" x1="32" y1="0" x2="32" y2="3"/>
			
				<line fill="none" stroke="#FFFFFF" stroke-width="0.25" stroke-miterlimit="10" stroke-dasharray="6.0976,6.0976" x1="32" y1="9.098" x2="32" y2="249.951"/>
			<line fill="none" stroke="#FFFFFF" stroke-width="0.25" stroke-miterlimit="10" x1="32" y1="253" x2="32" y2="256"/>
		</g>
	</g>
	<g>
		<line fill="#478BCA" x1="64" y1="0" x2="64" y2="256"/>
		<g>
			<line fill="none" stroke="#FFFFFF" stroke-width="0.25" stroke-miterlimit="10" x1="64" y1="0" x2="64" y2="3"/>
			
				<line fill="none" stroke="#FFFFFF" stroke-width="0.25" stroke-miterlimit="10" stroke-dasharray="6.0976,6.0976" x1="64" y1="9.098" x2="64" y2="249.951"/>
			<line fill="none" stroke="#FFFFFF" stroke-width="0.25" stroke-miterlimit="10" x1="64" y1="253" x2="64" y2="256"/>
		</g>
	</g>
	<g>
		<line fill="#478BCA" x1="96" y1="0" x2="96" y2="256"/>
		<g>
			<line fill="none" stroke="#FFFFFF" stroke-width="0.25" stroke-miterlimit="10" x1="96" y1="0" x2="96" y2="3"/>
			
				<line fill="none" stroke="#FFFFFF" stroke-width="0.25" stroke-miterlimit="10" stroke-dasharray="6.0976,6.0976" x1="96" y1="9.098" x2="96" y2="249.951"/>
			<line fill="none" stroke="#FFFFFF" stroke-width="0.25" stroke-miterlimit="10" x1="96" y1="253" x2="96" y2="256"/>
		</g>
	</g>
	<g>
		<line fill="#478BCA" x1="128" y1="0" x2="128" y2="256"/>
		<g>
			<line fill="none" stroke="#FFFFFF" stroke-width="0.25" stroke-miterlimit="10" x1="128" y1="0" x2="128" y2="3"/>
			
				<line fill="none" stroke="#FFFFFF" stroke-width="0.25" stroke-miterlimit="10" stroke-dasharray="6.0976,6.0976" x1="128" y1="9.098" x2="128" y2="249.951"/>
			<line fill="none" stroke="#FFFFFF" stroke-width="0.25" stroke-miterlimit="10" x1="128" y1="253" x2="128" y2="256"/>
		</g>
	</g>
	<g>
		<line fill="#478BCA" x1="0" y1="96" x2="256" y2="96"/>
		<g>
			<line fill="none" stroke="#FFFFFF" stroke-width="0.25" stroke-miterlimit="10" x1="0" y1="96" x2="3" y2="96"/>
			
				<line fill="none" stroke="#FFFFFF" stroke-width="0.25" stroke-miterlimit="10" stroke-dasharray="6.0976,6.0976" x1="9.098" y1="96" x2="249.951" y2="96"/>
			<line fill="none" stroke="#FFFFFF" stroke-width="0.25" stroke-miterlimit="10" x1="253" y1="96" x2="256" y2="96"/>
		</g>
	</g>
	<g>
		<line fill="#478BCA" x1="0" y1="64" x2="256" y2="64"/>
		<g>
			<line fill="none" stroke="#FFFFFF" stroke-width="0.25" stroke-miterlimit="10" x1="0" y1="64" x2="3" y2="64"/>
			
				<line fill="none" stroke="#FFFFFF" stroke-width="0.25" stroke-miterlimit="10" stroke-dasharray="6.0976,6.0976" x1="9.098" y1="64" x2="249.951" y2="64"/>
			<line fill="none" stroke="#FFFFFF" stroke-width="0.25" stroke-miterlimit="10" x1="253" y1="64" x2="256" y2="64"/>
		</g>
	</g>
	<g>
		<line fill="#478BCA" x1="0" y1="32" x2="256" y2="32"/>
		<g>
			<line fill="none" stroke="#FFFFFF" stroke-width="0.25" stroke-miterlimit="10" x1="0" y1="32" x2="3" y2="32"/>
			
				<line fill="none" stroke="#FFFFFF" stroke-width="0.25" stroke-miterlimit="10" stroke-dasharray="6.0976,6.0976" x1="9.098" y1="32" x2="249.951" y2="32"/>
			<line fill="none" stroke="#FFFFFF" stroke-width="0.25" stroke-miterlimit="10" x1="253" y1="32" x2="256" y2="32"/>
		</g>
	</g>
	<g>
		<line fill="#478BCA" x1="0" y1="224" x2="256" y2="224"/>
		<g>
			<line fill="none" stroke="#FFFFFF" stroke-width="0.25" stroke-miterlimit="10" x1="0" y1="224" x2="3" y2="224"/>
			
				<line fill="none" stroke="#FFFFFF" stroke-width="0.25" stroke-miterlimit="10" stroke-dasharray="6.0976,6.0976" x1="9.098" y1="224" x2="249.951" y2="224"/>
			<line fill="none" stroke="#FFFFFF" stroke-width="0.25" stroke-miterlimit="10" x1="253" y1="224" x2="256" y2="224"/>
		</g>
	</g>
	<g>
		<line fill="#478BCA" x1="0" y1="192" x2="256" y2="192"/>
		<g>
			<line fill="none" stroke="#FFFFFF" stroke-width="0.25" stroke-miterlimit="10" x1="0" y1="192" x2="3" y2="192"/>
			
				<line fill="none" stroke="#FFFFFF" stroke-width="0.25" stroke-miterlimit="10" stroke-dasharray="6.0976,6.0976" x1="9.098" y1="192" x2="249.951" y2="192"/>
			<line fill="none" stroke="#FFFFFF" stroke-width="0.25" stroke-miterlimit="10" x1="253" y1="192" x2="256" y2="192"/>
		</g>
	</g>
	<g>
		<line fill="#478BCA" x1="0" y1="160" x2="256" y2="160"/>
		<g>
			<line fill="none" stroke="#FFFFFF" stroke-width="0.25" stroke-miterlimit="10" x1="0" y1="160" x2="3" y2="160"/>
			
				<line fill="none" stroke="#FFFFFF" stroke-width="0.25" stroke-miterlimit="10" stroke-dasharray="6.0976,6.0976" x1="9.098" y1="160" x2="249.951" y2="160"/>
			<line fill="none" stroke="#FFFFFF" stroke-width="0.25" stroke-miterlimit="10" x1="253" y1="160" x2="256" y2="160"/>
		</g>
	</g>
	<g>
		<line fill="#478BCA" x1="0" y1="128" x2="256" y2="128"/>
		<g>
			<line fill="none" stroke="#FFFFFF" stroke-width="0.25" stroke-miterlimit="10" x1="0" y1="128" x2="3" y2="128"/>
			
				<line fill="none" stroke="#FFFFFF" stroke-width="0.25" stroke-miterlimit="10" stroke-dasharray="6.0976,6.0976" x1="9.098" y1="128" x2="249.951" y2="128"/>
			<line fill="none" stroke="#FFFFFF" stroke-width="0.25" stroke-miterlimit="10" x1="253" y1="128" x2="256" y2="128"/>
		</g>
	</g>
</g>
<g>
	<path fill="none" stroke="#FFFFFF" stroke-width="2" stroke-miterlimit="10" d="M190.863,192.006h-42.599l-54.013-74.607
		c-4.002,0.158-7.258,0.235-9.768,0.235c-1.021,0-2.118-0.019-3.295-0.059c-1.177-0.039-2.394-0.098-3.648-0.177v46.365
		c0,10.043,1.099,16.279,3.295,18.71c2.981,3.453,7.453,5.178,13.416,5.178h6.236v4.354H32.119v-4.354h6.001
		c6.746,0,11.571-2.195,14.474-6.59c1.648-2.431,2.472-8.196,2.472-17.298V60.679c0-10.041-1.1-16.278-3.295-18.71
		c-3.06-3.451-7.61-5.178-13.65-5.178h-6.001v-4.354H90.25c16.945,0,29.438,1.235,37.48,3.707c8.04,2.471,14.865,7.021,20.476,13.65
		c5.607,6.63,8.413,14.533,8.413,23.711c0,9.808-3.197,18.319-9.59,25.536c-6.396,7.219-16.299,12.317-29.713,15.298l32.949,45.776
		c7.531,10.514,14.003,17.495,19.416,20.946c5.413,3.453,12.474,5.648,21.182,6.59V192.006z M77.541,109.985
		c1.49,0,2.784,0.02,3.884,0.059c1.098,0.04,2.001,0.059,2.706,0.059c15.22,0,26.692-3.295,34.421-9.885
		c7.726-6.59,11.591-14.983,11.591-25.183c0-9.962-3.118-18.063-9.355-24.3c-6.236-6.237-14.494-9.355-24.771-9.355
		c-4.551,0-10.708,0.747-18.476,2.236V109.985z"/>
</g>
<g>
	<path fill="none" stroke="#FFFFFF" stroke-width="2" stroke-linecap="round" stroke-miterlimit="10" d="M41.3,31.361
		c-1.16,1.672-2.32,3.344-3.481,5.016"/>
	<path fill="none" stroke="#FFFFFF" stroke-width="2" stroke-linecap="round" stroke-miterlimit="10" d="M53.454,31.388
		c-1.847,2.661-3.693,5.321-5.539,7.982"/>
	<path fill="none" stroke="#FFFFFF" stroke-width="2" stroke-linecap="round" stroke-miterlimit="10" d="M65.661,31.336
		c-3.987,5.746-7.974,11.491-11.961,17.236"/>
	<path fill="none" stroke="#FFFFFF" stroke-width="2" stroke-linecap="round" stroke-miterlimit="10" d="M76.32,33.516
		c-7.117,10.255-14.234,20.511-21.352,30.767"/>
	<path fill="none" stroke="#FFFFFF" stroke-width="2" stroke-linecap="round" stroke-miterlimit="10" d="M77.522,49.716
		c-7.506,10.528-15.168,20.946-22.512,31.589"/>
	<path fill="none" stroke="#FFFFFF" stroke-width="2" stroke-linecap="round" stroke-miterlimit="10" d="M88.794,33.518
		c-1.9,2.822-3.829,5.626-5.776,8.417"/>
	<path fill="none" stroke="#FFFFFF" stroke-width="2" stroke-linecap="round" stroke-miterlimit="10" d="M78.103,66.353
		c-8.004,11.564-16.04,23.106-24.125,34.614"/>
	<path fill="none" stroke="#FFFFFF" stroke-width="2" stroke-linecap="round" stroke-miterlimit="10" d="M100.789,33.417
		c-1.811,2.639-3.622,5.278-5.436,7.916"/>
	<path fill="none" stroke="#FFFFFF" stroke-width="2" stroke-linecap="round" stroke-miterlimit="10" d="M78.425,83.151
		c-7.929,11.449-15.863,22.894-23.821,34.323"/>
	<path fill="none" stroke="#FFFFFF" stroke-width="2" stroke-linecap="round" stroke-miterlimit="10" d="M113.023,33.238
		c-2.345,3.373-4.688,6.746-7.03,10.12"/>
	<path fill="none" stroke="#FFFFFF" stroke-width="2" stroke-linecap="round" stroke-miterlimit="10" d="M77.863,101.682
		c-7.69,10.998-15.386,21.994-23.055,33.007"/>
	<path fill="none" stroke="#FFFFFF" stroke-width="2" stroke-linecap="round" stroke-miterlimit="10" d="M123.869,35.245
		c-2.827,4.158-5.664,8.31-8.509,12.456"/>
	<path fill="none" stroke="#FFFFFF" stroke-width="2" stroke-linecap="round" stroke-miterlimit="10" d="M76.834,120.883
		c-7.341,10.708-14.706,21.4-22.268,31.955"/>
	<path fill="none" stroke="#FFFFFF" stroke-width="2" stroke-linecap="round" stroke-miterlimit="10" d="M84.174,110.174
		c-1.546,2.254-3.091,4.508-4.636,6.763"/>
	<path fill="none" stroke="#FFFFFF" stroke-width="2" stroke-linecap="round" stroke-miterlimit="10" d="M134.163,38.26
		c-3.424,5.253-6.97,10.426-10.523,15.592"/>
	<path fill="none" stroke="#FFFFFF" stroke-width="2" stroke-linecap="round" stroke-miterlimit="10" d="M42.251,187.848
		c-1.062,1.529-2.123,3.059-3.185,4.589"/>
	<path fill="none" stroke="#FFFFFF" stroke-width="2" stroke-linecap="round" stroke-miterlimit="10" d="M78.479,135.644
		c-8.095,11.665-16.189,23.329-24.285,34.993"/>
	<path fill="none" stroke="#FFFFFF" stroke-width="2" stroke-linecap="round" stroke-miterlimit="10" d="M96.323,110.197
		c-1.931,2.745-3.867,5.484-5.813,8.218"/>
	<path fill="none" stroke="#FFFFFF" stroke-width="2" stroke-linecap="round" stroke-miterlimit="10" d="M142.658,43.118
		c-4.682,6.732-9.333,13.486-13.977,20.245"/>
	<path fill="none" stroke="#FFFFFF" stroke-width="2" stroke-linecap="round" stroke-miterlimit="10" d="M76.681,155.775
		c-8.342,12.021-16.684,24.041-25.025,36.063"/>
	<path fill="none" stroke="#FFFFFF" stroke-width="2" stroke-linecap="round" stroke-miterlimit="10" d="M111.014,106.301
		c-4.085,5.887-8.17,11.774-12.255,17.661"/>
	<path fill="none" stroke="#FFFFFF" stroke-width="2" stroke-linecap="round" stroke-miterlimit="10" d="M149.376,51.022
		c-6.594,9.5-13.187,19.001-19.78,28.502"/>
	<path fill="none" stroke="#FFFFFF" stroke-width="2" stroke-linecap="round" stroke-miterlimit="10" d="M77.682,171.874
		c-4.638,6.682-9.274,13.364-13.912,20.046"/>
	<path fill="none" stroke="#FFFFFF" stroke-width="2" stroke-linecap="round" stroke-miterlimit="10" d="M155.009,60.364
		c-16.791,24.021-33.025,48.428-49.974,72.339"/>
	<path fill="none" stroke="#FFFFFF" stroke-width="2" stroke-linecap="round" stroke-miterlimit="10" d="M82.349,182.688
		c-2.253,3.246-4.506,6.492-6.759,9.738"/>
	<path fill="none" stroke="#FFFFFF" stroke-width="2" stroke-linecap="round" stroke-miterlimit="10" d="M123.81,122.68
		c-4.192,6.032-8.37,12.073-12.523,18.13"/>
	<path fill="none" stroke="#FFFFFF" stroke-width="2" stroke-linecap="round" stroke-miterlimit="10" d="M157.313,74.684
		c-7.989,11.499-16.031,22.961-24.051,34.439"/>
	<path fill="none" stroke="#FFFFFF" stroke-width="2" stroke-linecap="round" stroke-miterlimit="10" d="M91.526,187.003
		c-1.29,1.859-2.581,3.719-3.871,5.577"/>
	<path fill="none" stroke="#FFFFFF" stroke-width="2" stroke-linecap="round" stroke-miterlimit="10" d="M129.605,132.133
		c-4.101,5.908-8.2,11.815-12.301,17.724"/>
	<path fill="none" stroke="#FFFFFF" stroke-width="2" stroke-linecap="round" stroke-miterlimit="10" d="M136.241,140.108
		c-3.963,5.711-7.927,11.423-11.89,17.134"/>
	<path fill="none" stroke="#FFFFFF" stroke-width="2" stroke-linecap="round" stroke-miterlimit="10" d="M142.12,149.177
		c-4.052,5.839-8.104,11.677-12.155,17.515"/>
	<path fill="none" stroke="#FFFFFF" stroke-width="2" stroke-linecap="round" stroke-miterlimit="10" d="M148.13,158.058
		c-3.94,5.679-7.882,11.357-11.822,17.036"/>
	<path fill="none" stroke="#FFFFFF" stroke-width="2" stroke-linecap="round" stroke-miterlimit="10" d="M155.135,165.503
		c-4.223,6.084-8.444,12.169-12.667,18.253"/>
	<path fill="none" stroke="#FFFFFF" stroke-width="2" stroke-linecap="round" stroke-miterlimit="10" d="M162.166,172.912
		c-4.351,6.269-8.7,12.537-13.051,18.806"/>
	<path fill="none" stroke="#FFFFFF" stroke-width="2" stroke-linecap="round" stroke-miterlimit="10" d="M169.598,179.742
		c-3.025,4.359-6.052,8.719-9.077,13.08"/>
	<path fill="none" stroke="#FFFFFF" stroke-width="2" stroke-linecap="round" stroke-miterlimit="10" d="M178.573,184.348
		c-1.983,2.858-3.967,5.717-5.95,8.576"/>
	<path fill="none" stroke="#FFFFFF" stroke-width="2" stroke-linecap="round" stroke-miterlimit="10" d="M189.365,186.336
		c-1.459,2.102-2.917,4.203-4.376,6.306"/>
</g>
<g>
	<g>
		<line fill="none" stroke="#FFFFFF" stroke-width="1.5" stroke-miterlimit="10" x1="224" y1="37.382" x2="224" y2="186.617"/>
		<g>
			<polygon fill="#FFFFFF" points="220.281,38.477 224.021,32 227.76,38.477 			"/>
		</g>
		<g>
			<polygon fill="#FFFFFF" points="220.281,185.523 224.021,192 227.76,185.523 			"/>
		</g>
	</g>
</g>
<g>
	<g>
		<line fill="none" stroke="#FFFFFF" stroke-width="1.5" stroke-miterlimit="10" x1="37.382" y1="224" x2="186.618" y2="224"/>
		<g>
			<polygon fill="#FFFFFF" points="38.477,227.719 32,223.979 38.477,220.24 			"/>
		</g>
		<g>
			<polygon fill="#FFFFFF" points="185.523,227.719 192,223.979 185.523,220.24 			"/>
		</g>
	</g>
</g>
<line fill="none" stroke="#FFFFFF" stroke-width="1.5" stroke-linecap="round" stroke-miterlimit="10" x1="144" y1="32" x2="240" y2="32"/>
<line fill="none" stroke="#FFFFFF" stroke-width="1.5" stroke-linecap="round" stroke-miterlimit="10" x1="240" y1="192" x2="202" y2="192"/>
<line fill="none" stroke="#FFFFFF" stroke-width="1.5" stroke-linecap="round" stroke-miterlimit="10" x1="192" y1="240" x2="192" y2="202"/>
<line fill="none" stroke="#FFFFFF" stroke-width="1.5" stroke-linecap="round" stroke-miterlimit="10" x1="32" y1="240" x2="32" y2="202"/>
<g>
	<path fill="#FFFFFF" d="M102.637,232.16c-0.103,0.457-0.191,0.842-0.266,1.154c-0.075,0.313-0.142,0.584-0.203,0.813
		c-0.061,0.229-0.115,0.43-0.161,0.602c-0.047,0.174-0.091,0.351-0.133,0.533c-0.042,0.182-0.086,0.38-0.133,0.594
		c-0.047,0.215-0.098,0.477-0.154,0.785c-0.038,0.205-0.08,0.414-0.126,0.629c-0.047,0.215-0.089,0.42-0.126,0.617
		c-0.038,0.195-0.073,0.375-0.105,0.538c-0.033,0.163-0.054,0.292-0.063,0.386c-0.019,0.224-0.038,0.408-0.056,0.553
		c-0.019,0.145-0.054,0.271-0.105,0.378s-0.128,0.2-0.231,0.28c-0.103,0.078-0.243,0.16-0.42,0.244h-0.35
		c-0.187,0-0.343-0.027-0.469-0.084c-0.126-0.056-0.189-0.195-0.189-0.42v-0.098c0.075-0.438,0.154-0.824,0.238-1.155
		s0.168-0.655,0.252-0.973s0.17-0.653,0.259-1.009c0.089-0.354,0.175-0.77,0.259-1.245c0.009-0.065,0.021-0.138,0.035-0.218
		c0.014-0.078,0.03-0.156,0.049-0.23c0.046-0.215,0.095-0.438,0.147-0.672c0.051-0.233,0.077-0.43,0.077-0.588
		c0-0.065-0.004-0.104-0.014-0.112c-0.131,0.028-0.275,0.112-0.434,0.252c-0.093,0.065-0.182,0.119-0.266,0.161
		s-0.177,0.063-0.28,0.063c-0.065,0-0.103-0.004-0.112-0.014c-0.121-0.019-0.245-0.126-0.371-0.322
		c-0.126-0.195-0.189-0.41-0.189-0.644c0-0.121,0.028-0.233,0.084-0.336c0.243-0.261,0.474-0.472,0.693-0.63
		c0.219-0.158,0.45-0.317,0.693-0.477c0.177-0.111,0.357-0.229,0.539-0.35s0.375-0.275,0.581-0.462
		c0.121-0.084,0.271-0.126,0.448-0.126c0.187,0,0.359,0.082,0.518,0.245s0.238,0.385,0.238,0.665c0,0.178-0.052,0.396-0.154,0.658
		V232.16z"/>
	<path fill="#FFFFFF" d="M110.525,238.396c-0.285,0.342-0.593,0.626-0.924,0.854c-0.332,0.229-0.691,0.418-1.078,0.567
		c-0.387,0.148-0.814,0.279-1.281,0.392c-0.243,0.065-0.474,0.11-0.693,0.133c-0.219,0.023-0.427,0.035-0.623,0.035
		c-0.719,0-1.279-0.168-1.68-0.504s-0.682-0.793-0.84-1.372c-0.047-0.187-0.084-0.371-0.112-0.553
		c-0.028-0.182-0.042-0.366-0.042-0.553c0-0.252,0.021-0.502,0.063-0.75c0.042-0.246,0.1-0.516,0.175-0.805
		c0.121-0.476,0.271-0.91,0.448-1.302s0.387-0.756,0.63-1.092c0.243-0.337,0.521-0.651,0.833-0.945
		c0.313-0.294,0.67-0.581,1.071-0.86c0.196-0.131,0.373-0.24,0.532-0.33c0.159-0.088,0.32-0.168,0.483-0.237
		c0.164-0.07,0.338-0.134,0.525-0.188c0.187-0.057,0.406-0.117,0.658-0.183h-0.014c0.187-0.047,0.345-0.07,0.476-0.07
		c0.187,0,0.348,0.044,0.483,0.134c0.135,0.088,0.221,0.23,0.259,0.426l-0.014-0.014c0.019,0.057,0.028,0.112,0.028,0.168
		c0,0.131-0.04,0.262-0.119,0.393c-0.08,0.131-0.182,0.25-0.308,0.357s-0.264,0.2-0.413,0.279c-0.149,0.08-0.294,0.133-0.434,0.161
		c-0.42,0.112-0.805,0.255-1.155,0.427c-0.35,0.173-0.702,0.441-1.057,0.805c-0.037,0.038-0.07,0.07-0.098,0.099
		c-0.028,0.028-0.061,0.056-0.098,0.084c-0.224,0.224-0.425,0.438-0.602,0.644s-0.29,0.416-0.336,0.631
		c0.336-0.197,0.684-0.386,1.043-0.567c0.359-0.183,0.726-0.343,1.099-0.483c0.373-0.14,0.756-0.252,1.148-0.336
		s0.784-0.126,1.176-0.126h0.182c0.392,0.019,0.714,0.099,0.966,0.238c0.252,0.14,0.471,0.388,0.658,0.741
		c0.149,0.299,0.224,0.626,0.224,0.98c0,0.457-0.136,0.947-0.406,1.471C111.088,237.639,110.81,238.057,110.525,238.396z
		 M110.225,236.206c0-0.177-0.07-0.294-0.21-0.351c-0.14-0.056-0.313-0.084-0.518-0.084c-0.215,0-0.446,0.018-0.693,0.049
		c-0.248,0.033-0.483,0.073-0.707,0.119c-0.038,0.01-0.07,0.018-0.098,0.021c-0.028,0.005-0.061,0.007-0.098,0.007
		c-0.532,0.103-1.003,0.294-1.414,0.574s-0.784,0.574-1.12,0.882c-0.075,0.121-0.124,0.223-0.147,0.301
		c-0.023,0.08-0.035,0.152-0.035,0.217c0,0.131,0.049,0.234,0.147,0.309s0.217,0.133,0.357,0.175s0.287,0.07,0.441,0.084
		c0.154,0.015,0.287,0.021,0.399,0.021c0.224,0,0.527-0.049,0.91-0.146s0.77-0.264,1.162-0.496c0.177-0.113,0.359-0.236,0.546-0.371
		c0.187-0.136,0.357-0.273,0.511-0.414c0.154-0.14,0.282-0.277,0.385-0.412c0.103-0.136,0.163-0.255,0.182-0.357V236.206z"/>
	<path fill="#FFFFFF" d="M119.772,236.725c-0.177,0.345-0.38,0.66-0.609,0.944s-0.49,0.548-0.784,0.791
		c-0.294,0.243-0.623,0.467-0.987,0.672c-0.448,0.262-0.887,0.46-1.316,0.595c-0.429,0.136-0.84,0.203-1.232,0.203
		c-0.737,0-1.377-0.252-1.918-0.756c-0.42-0.346-0.712-0.73-0.875-1.154c-0.164-0.426-0.245-0.908-0.245-1.449
		c0-0.168,0.009-0.346,0.028-0.532c0.019-0.187,0.042-0.373,0.07-0.56c0.159-0.962,0.459-1.785,0.903-2.472s1.085-1.28,1.925-1.784
		c0.765-0.458,1.498-0.687,2.198-0.687c0.392,0,0.774,0.065,1.148,0.196c0.373,0.131,0.747,0.313,1.12,0.545
		c0.14,0.094,0.271,0.181,0.392,0.26c0.121,0.079,0.233,0.166,0.336,0.259c0.103,0.094,0.196,0.2,0.28,0.322
		c0.084,0.121,0.163,0.271,0.238,0.448c0.159,0.4,0.238,0.774,0.238,1.119c0,0.28-0.04,0.579-0.119,0.896
		c-0.079,0.317-0.184,0.653-0.315,1.008C120.109,236.001,119.95,236.379,119.772,236.725z M119.143,234.582
		c0-0.289-0.054-0.564-0.161-0.826c-0.107-0.262-0.254-0.49-0.441-0.686c-0.187-0.196-0.406-0.359-0.658-0.49
		s-0.523-0.215-0.812-0.252c-0.065-0.01-0.133-0.016-0.203-0.021c-0.07-0.004-0.138-0.007-0.203-0.007
		c-0.308,0-0.611,0.047-0.91,0.14c-0.299,0.094-0.583,0.229-0.854,0.406c-0.271,0.178-0.516,0.395-0.735,0.651
		s-0.399,0.553-0.539,0.89c-0.196,0.494-0.294,0.933-0.294,1.315c0,0.579,0.196,1.092,0.588,1.54
		c0.214,0.242,0.431,0.412,0.651,0.511c0.219,0.099,0.506,0.156,0.861,0.175c0.037,0,0.072,0.002,0.105,0.008
		c0.033,0.004,0.068,0.006,0.105,0.006c0.392,0,0.747-0.074,1.064-0.224s0.653-0.373,1.008-0.672
		c0.298-0.243,0.546-0.472,0.742-0.687c0.196-0.214,0.359-0.498,0.49-0.854C119.077,235.189,119.143,234.881,119.143,234.582z"/>
	<path fill="#FFFFFF" d="M124.113,233.238c0.448-0.047,0.894-0.101,1.337-0.161c0.443-0.061,0.903-0.091,1.379-0.091
		c0.243,0,0.492,0.014,0.749,0.041c0.256,0.029,0.506,0.084,0.749,0.168c0.448,0.141,0.792,0.316,1.037,0.525
		c0.242,0.211,0.405,0.492,0.489,0.848c0.037,0.14,0.056,0.313,0.056,0.518c0.01,0.047,0.015,0.089,0.015,0.126
		c0,0.038,0,0.079,0,0.126c0,0.373-0.082,0.721-0.245,1.043c-0.164,0.322-0.401,0.628-0.714,0.917
		c-0.313,0.29-0.696,0.565-1.148,0.826s-0.968,0.519-1.547,0.771c-0.448,0.148-0.861,0.293-1.239,0.434
		c-0.378,0.14-0.777,0.229-1.197,0.266c-0.271,0.057-0.49,0.112-0.658,0.168l-0.028,0.028c-0.14,0.177-0.231,0.39-0.273,0.637
		s-0.063,0.497-0.063,0.749v0.477c0,0.093-0.014,0.182-0.042,0.266s-0.089,0.163-0.182,0.238c-0.299,0.224-0.602,0.336-0.91,0.336
		c-0.159,0-0.327-0.037-0.504-0.112c-0.103-0.056-0.173-0.114-0.21-0.175c-0.037-0.061-0.056-0.138-0.056-0.23
		c0.14-0.71,0.275-1.42,0.406-2.129s0.273-1.414,0.427-2.113c0.154-0.7,0.329-1.396,0.525-2.086
		c0.196-0.691,0.425-1.373,0.686-2.045c0.187-0.148,0.371-0.242,0.553-0.279c0.182-0.037,0.38-0.065,0.595-0.084H124.113z
		 M124.799,237.844c0.364-0.131,0.742-0.279,1.134-0.447s0.763-0.364,1.113-0.588c0.35-0.225,0.658-0.475,0.924-0.75
		s0.455-0.58,0.567-0.916l-0.014-0.057c-0.131-0.178-0.371-0.306-0.721-0.385c-0.35-0.08-0.749-0.119-1.197-0.119
		c-0.271,0-0.558,0.012-0.861,0.035s-0.59,0.067-0.861,0.133c-0.187,0.027-0.348,0.061-0.483,0.098s-0.217,0.094-0.245,0.168
		c-0.215,0.448-0.38,0.927-0.497,1.436s-0.189,0.986-0.217,1.436l0.042,0.055c0.038,0.02,0.075,0.029,0.112,0.029
		c0.037,0,0.079,0,0.126,0c0.159,0,0.331-0.021,0.518-0.063c0.187-0.042,0.364-0.063,0.532-0.063H124.799z"/>
	<path fill="#FFFFFF" d="M137.818,232.775c0.131,0.057,0.248,0.131,0.35,0.225c0.104,0.094,0.188,0.205,0.252,0.336
		c0.066,0.131,0.099,0.266,0.099,0.406c-0.122,0.158-0.231,0.289-0.329,0.392s-0.191,0.194-0.279,0.273
		c-0.09,0.079-0.178,0.151-0.267,0.217s-0.188,0.14-0.301,0.224c-0.159,0.131-0.313,0.243-0.462,0.336l-0.336,0.238
		c-0.15,0.104-0.28,0.196-0.393,0.28c-0.111,0.084-0.222,0.171-0.328,0.259c-0.107,0.089-0.218,0.182-0.33,0.28
		c-0.111,0.098-0.242,0.212-0.392,0.343v0.027c0,0.131,0.065,0.302,0.196,0.512s0.345,0.506,0.644,0.889
		c0.206,0.15,0.378,0.322,0.519,0.518c0.14,0.197,0.279,0.458,0.42,0.785c0.009,0.037,0.014,0.074,0.014,0.111
		c0,0.028,0,0.057,0,0.084c0,0.141-0.023,0.252-0.07,0.336s-0.107,0.15-0.182,0.196s-0.154,0.077-0.238,0.091
		s-0.168,0.021-0.252,0.021h-0.266c-0.084,0-0.176-0.04-0.273-0.119s-0.191-0.17-0.279-0.273c-0.09-0.103-0.166-0.197-0.231-0.287
		c-0.065-0.088-0.103-0.142-0.112-0.16c-0.205-0.271-0.4-0.525-0.588-0.764c-0.187-0.238-0.443-0.473-0.77-0.707
		c-0.373,0.215-0.705,0.448-0.994,0.7s-0.518,0.458-0.686,0.616c-0.075,0.065-0.188,0.158-0.336,0.279
		c-0.15,0.122-0.311,0.243-0.484,0.365c-0.172,0.121-0.338,0.226-0.496,0.314c-0.159,0.088-0.28,0.133-0.364,0.133
		c-0.112,0-0.227-0.023-0.343-0.07c-0.117-0.047-0.22-0.104-0.309-0.175c-0.088-0.069-0.16-0.151-0.217-0.245
		c-0.056-0.093-0.084-0.187-0.084-0.279c0-0.047,0.01-0.099,0.028-0.154c0.046-0.158,0.128-0.287,0.245-0.385
		c0.116-0.098,0.244-0.199,0.385-0.301c0.01,0,0.051-0.031,0.126-0.092s0.156-0.131,0.245-0.21c0.088-0.079,0.172-0.151,0.252-0.217
		c0.079-0.065,0.128-0.107,0.146-0.126c0.225-0.158,0.395-0.287,0.512-0.385c0.116-0.098,0.221-0.189,0.314-0.273
		s0.189-0.175,0.287-0.273c0.098-0.098,0.236-0.226,0.413-0.385c-0.187-0.345-0.359-0.639-0.519-0.882
		c-0.158-0.242-0.301-0.464-0.426-0.665c-0.127-0.2-0.24-0.396-0.344-0.588c-0.103-0.191-0.195-0.408-0.279-0.65
		c0.009-0.225,0.037-0.408,0.084-0.554c0.046-0.145,0.104-0.257,0.174-0.336c0.07-0.079,0.147-0.136,0.232-0.168
		c0.084-0.032,0.168-0.049,0.252-0.049c0.102,0,0.195,0.017,0.279,0.049s0.145,0.059,0.182,0.077
		c0.037,0.027,0.084,0.077,0.141,0.146c0.056,0.07,0.113,0.143,0.175,0.217c0.061,0.076,0.116,0.15,0.168,0.225
		s0.091,0.136,0.119,0.182c0.187,0.327,0.378,0.643,0.573,0.945c0.197,0.304,0.416,0.586,0.658,0.848
		c0.28-0.196,0.488-0.348,0.623-0.455c0.136-0.107,0.262-0.208,0.379-0.301c0.116-0.094,0.252-0.206,0.405-0.336
		c0.154-0.131,0.395-0.322,0.722-0.574c0.177-0.121,0.338-0.248,0.482-0.379s0.28-0.252,0.406-0.363
		c0.126-0.112,0.242-0.203,0.35-0.273s0.213-0.105,0.315-0.105C137.557,232.691,137.688,232.721,137.818,232.775z"/>
</g>
<g>
	<path fill="#FFFFFF" d="M232.16,128.824c0.457,0.103,0.842,0.191,1.154,0.266c0.313,0.075,0.584,0.143,0.813,0.203
		s0.43,0.115,0.602,0.161c0.174,0.047,0.351,0.091,0.533,0.133c0.182,0.042,0.38,0.087,0.594,0.134
		c0.215,0.047,0.477,0.098,0.785,0.153c0.205,0.038,0.414,0.079,0.629,0.126s0.42,0.089,0.617,0.126
		c0.195,0.038,0.375,0.073,0.538,0.104c0.163,0.033,0.292,0.055,0.386,0.063c0.224,0.019,0.408,0.038,0.553,0.056
		c0.145,0.02,0.271,0.055,0.378,0.105s0.2,0.129,0.28,0.23c0.078,0.104,0.16,0.244,0.244,0.42v0.351c0,0.187-0.027,0.343-0.084,0.47
		c-0.056,0.125-0.195,0.188-0.42,0.188h-0.098c-0.438-0.075-0.824-0.154-1.155-0.238s-0.655-0.168-0.973-0.252
		s-0.653-0.17-1.009-0.259c-0.354-0.089-0.77-0.176-1.245-0.26c-0.065-0.008-0.138-0.021-0.218-0.034
		c-0.078-0.015-0.156-0.03-0.23-0.05c-0.215-0.046-0.438-0.095-0.672-0.146c-0.233-0.051-0.43-0.076-0.588-0.076
		c-0.065,0-0.104,0.004-0.112,0.014c0.028,0.131,0.112,0.275,0.252,0.434c0.065,0.094,0.119,0.182,0.161,0.266
		s0.063,0.178,0.063,0.28c0,0.065-0.004,0.103-0.014,0.112c-0.019,0.121-0.126,0.244-0.322,0.371
		c-0.195,0.126-0.41,0.189-0.644,0.189c-0.121,0-0.233-0.029-0.336-0.084c-0.261-0.243-0.472-0.475-0.63-0.693
		c-0.158-0.22-0.317-0.451-0.477-0.693c-0.111-0.178-0.229-0.357-0.35-0.539s-0.275-0.375-0.462-0.581
		c-0.084-0.121-0.126-0.271-0.126-0.448c0-0.186,0.082-0.359,0.245-0.518c0.163-0.159,0.385-0.238,0.665-0.238
		c0.178,0,0.396,0.052,0.658,0.154H232.16z"/>
	<path fill="#FFFFFF" d="M238.396,120.936c0.342,0.285,0.626,0.593,0.854,0.924c0.229,0.332,0.418,0.691,0.567,1.078
		c0.148,0.387,0.279,0.814,0.392,1.281c0.065,0.243,0.11,0.474,0.133,0.693c0.023,0.219,0.035,0.427,0.035,0.623
		c0,0.719-0.168,1.279-0.504,1.68s-0.793,0.682-1.372,0.84c-0.187,0.047-0.371,0.084-0.553,0.112
		c-0.182,0.028-0.366,0.042-0.553,0.042c-0.252,0-0.502-0.021-0.75-0.063c-0.246-0.042-0.516-0.1-0.805-0.175
		c-0.476-0.121-0.91-0.271-1.302-0.448s-0.756-0.387-1.092-0.63c-0.337-0.243-0.651-0.521-0.945-0.833
		c-0.294-0.313-0.581-0.67-0.86-1.071c-0.131-0.196-0.24-0.373-0.33-0.532c-0.088-0.159-0.168-0.32-0.237-0.483
		c-0.07-0.164-0.134-0.338-0.188-0.525c-0.057-0.187-0.117-0.406-0.183-0.658v0.014c-0.047-0.187-0.07-0.345-0.07-0.476
		c0-0.187,0.044-0.348,0.134-0.483c0.088-0.135,0.23-0.221,0.426-0.259l-0.014,0.014c0.057-0.019,0.112-0.028,0.168-0.028
		c0.131,0,0.262,0.04,0.393,0.119c0.131,0.08,0.25,0.182,0.357,0.308s0.2,0.264,0.279,0.413c0.08,0.149,0.133,0.294,0.161,0.434
		c0.112,0.42,0.255,0.805,0.427,1.155c0.173,0.35,0.441,0.702,0.805,1.057c0.038,0.037,0.07,0.07,0.099,0.098
		c0.028,0.028,0.056,0.061,0.084,0.098c0.224,0.224,0.438,0.425,0.644,0.602s0.416,0.29,0.631,0.336
		c-0.197-0.336-0.386-0.684-0.567-1.043c-0.183-0.359-0.343-0.726-0.483-1.099c-0.14-0.373-0.252-0.756-0.336-1.148
		s-0.126-0.784-0.126-1.176v-0.182c0.019-0.392,0.099-0.714,0.238-0.966c0.14-0.252,0.388-0.471,0.741-0.658
		c0.299-0.149,0.626-0.224,0.98-0.224c0.457,0,0.947,0.136,1.471,0.406C237.639,120.373,238.057,120.651,238.396,120.936z
		 M236.206,121.236c-0.177,0-0.294,0.07-0.351,0.21c-0.056,0.14-0.084,0.313-0.084,0.518c0,0.215,0.018,0.446,0.049,0.693
		c0.033,0.248,0.073,0.483,0.119,0.707c0.01,0.038,0.018,0.07,0.021,0.098c0.005,0.028,0.007,0.061,0.007,0.098
		c0.103,0.532,0.294,1.003,0.574,1.414s0.574,0.784,0.882,1.12c0.121,0.075,0.223,0.124,0.301,0.147
		c0.08,0.023,0.152,0.035,0.217,0.035c0.131,0,0.234-0.049,0.309-0.147s0.133-0.217,0.175-0.357s0.07-0.287,0.084-0.441
		c0.015-0.154,0.021-0.287,0.021-0.399c0-0.224-0.049-0.527-0.146-0.91s-0.264-0.77-0.496-1.162
		c-0.113-0.177-0.236-0.359-0.371-0.546c-0.136-0.187-0.273-0.357-0.414-0.511c-0.14-0.154-0.277-0.282-0.412-0.385
		c-0.136-0.103-0.255-0.163-0.357-0.182H236.206z"/>
	<path fill="#FFFFFF" d="M236.725,111.688c0.345,0.177,0.66,0.38,0.944,0.609s0.548,0.49,0.791,0.784
		c0.243,0.294,0.467,0.623,0.672,0.987c0.262,0.448,0.46,0.887,0.595,1.316c0.136,0.429,0.203,0.84,0.203,1.232
		c0,0.737-0.252,1.377-0.756,1.918c-0.346,0.42-0.73,0.712-1.154,0.875c-0.426,0.164-0.908,0.245-1.449,0.245
		c-0.168,0-0.346-0.009-0.532-0.028c-0.187-0.019-0.373-0.042-0.56-0.07c-0.962-0.159-1.785-0.459-2.472-0.903
		s-1.28-1.085-1.784-1.925c-0.458-0.765-0.687-1.498-0.687-2.198c0-0.392,0.065-0.774,0.196-1.148
		c0.131-0.373,0.313-0.747,0.545-1.12c0.094-0.14,0.181-0.271,0.26-0.392c0.079-0.121,0.166-0.233,0.259-0.336
		c0.094-0.103,0.2-0.196,0.322-0.28c0.121-0.084,0.271-0.163,0.448-0.238c0.4-0.159,0.774-0.238,1.119-0.238
		c0.28,0,0.579,0.04,0.896,0.119c0.317,0.079,0.653,0.184,1.008,0.315C236.001,111.352,236.379,111.511,236.725,111.688z
		 M234.582,112.318c-0.289,0-0.564,0.054-0.826,0.161c-0.262,0.107-0.49,0.254-0.686,0.441c-0.196,0.187-0.359,0.406-0.49,0.658
		s-0.215,0.523-0.252,0.812c-0.01,0.065-0.016,0.133-0.021,0.203c-0.004,0.07-0.007,0.138-0.007,0.203
		c0,0.308,0.047,0.611,0.14,0.91c0.094,0.299,0.229,0.583,0.406,0.854c0.178,0.271,0.395,0.516,0.651,0.735s0.553,0.399,0.89,0.539
		c0.494,0.196,0.933,0.294,1.315,0.294c0.579,0,1.092-0.196,1.54-0.588c0.242-0.214,0.412-0.431,0.511-0.651
		c0.099-0.219,0.156-0.506,0.175-0.861c0-0.037,0.002-0.072,0.008-0.105c0.004-0.033,0.006-0.068,0.006-0.105
		c0-0.392-0.074-0.747-0.224-1.064s-0.373-0.653-0.672-1.008c-0.243-0.298-0.472-0.546-0.687-0.742
		c-0.214-0.196-0.498-0.359-0.854-0.49C235.189,112.384,234.881,112.318,234.582,112.318z"/>
	<path fill="#FFFFFF" d="M233.238,107.348c-0.047-0.448-0.101-0.894-0.161-1.337c-0.061-0.443-0.091-0.903-0.091-1.379
		c0-0.243,0.014-0.492,0.041-0.749c0.029-0.256,0.084-0.506,0.168-0.749c0.141-0.448,0.316-0.793,0.525-1.036
		c0.211-0.242,0.492-0.406,0.848-0.49c0.14-0.037,0.313-0.056,0.518-0.056c0.047-0.009,0.089-0.014,0.126-0.014
		c0.038,0,0.079,0,0.126,0c0.373,0,0.721,0.082,1.043,0.245c0.322,0.164,0.628,0.401,0.917,0.714
		c0.29,0.313,0.565,0.696,0.826,1.148s0.519,0.968,0.771,1.547c0.148,0.448,0.293,0.861,0.434,1.239
		c0.14,0.378,0.229,0.777,0.266,1.197c0.057,0.271,0.112,0.49,0.168,0.658l0.028,0.028c0.177,0.14,0.39,0.231,0.637,0.273
		s0.497,0.063,0.749,0.063h0.477c0.093,0,0.182,0.014,0.266,0.042s0.163,0.089,0.238,0.182c0.224,0.299,0.336,0.602,0.336,0.91
		c0,0.159-0.037,0.327-0.112,0.504c-0.056,0.103-0.114,0.173-0.175,0.21c-0.061,0.037-0.138,0.056-0.23,0.056
		c-0.71-0.14-1.42-0.275-2.129-0.406s-1.414-0.273-2.113-0.427c-0.7-0.154-1.396-0.329-2.086-0.525
		c-0.691-0.196-1.373-0.425-2.045-0.686c-0.148-0.187-0.242-0.371-0.279-0.553c-0.037-0.182-0.065-0.38-0.084-0.595V107.348z
		 M237.844,106.662c-0.131-0.364-0.279-0.742-0.447-1.134s-0.364-0.763-0.588-1.113c-0.225-0.35-0.475-0.658-0.75-0.924
		s-0.58-0.455-0.916-0.567l-0.057,0.014c-0.178,0.131-0.306,0.371-0.385,0.721c-0.08,0.35-0.119,0.749-0.119,1.197
		c0,0.271,0.012,0.558,0.035,0.861s0.067,0.59,0.133,0.861c0.027,0.187,0.061,0.348,0.098,0.483s0.094,0.217,0.168,0.245
		c0.448,0.215,0.927,0.38,1.436,0.497s0.986,0.189,1.436,0.217l0.055-0.042c0.02-0.038,0.029-0.075,0.029-0.112
		c0-0.037,0-0.079,0-0.126c0-0.159-0.021-0.331-0.063-0.518c-0.042-0.187-0.063-0.364-0.063-0.532V106.662z"/>
	<path fill="#FFFFFF" d="M232.775,93.643c0.057-0.131,0.131-0.248,0.225-0.35s0.205-0.187,0.336-0.252s0.266-0.098,0.406-0.098
		c0.158,0.122,0.289,0.231,0.392,0.329s0.194,0.191,0.273,0.28c0.079,0.089,0.151,0.178,0.217,0.266
		c0.065,0.089,0.14,0.189,0.224,0.301c0.131,0.159,0.243,0.313,0.336,0.462l0.238,0.336c0.104,0.149,0.196,0.28,0.28,0.392
		c0.084,0.112,0.171,0.222,0.259,0.329c0.089,0.107,0.182,0.217,0.28,0.329c0.098,0.112,0.212,0.243,0.343,0.392h0.027
		c0.131,0,0.302-0.065,0.512-0.196c0.21-0.131,0.506-0.345,0.889-0.644c0.15-0.206,0.322-0.378,0.518-0.518
		c0.197-0.14,0.458-0.28,0.785-0.42c0.037-0.009,0.074-0.014,0.111-0.014c0.028,0,0.057,0,0.084,0c0.141,0,0.252,0.023,0.336,0.07
		c0.084,0.047,0.15,0.107,0.196,0.182s0.077,0.154,0.091,0.238c0.014,0.084,0.021,0.168,0.021,0.252v0.266
		c0,0.084-0.04,0.175-0.119,0.273c-0.079,0.098-0.17,0.191-0.273,0.28c-0.103,0.089-0.197,0.166-0.287,0.231
		c-0.088,0.065-0.142,0.103-0.16,0.112c-0.271,0.206-0.525,0.401-0.764,0.588c-0.238,0.187-0.473,0.443-0.707,0.77
		c0.215,0.373,0.448,0.705,0.7,0.994c0.252,0.29,0.458,0.518,0.616,0.686c0.065,0.075,0.158,0.187,0.279,0.336
		c0.122,0.149,0.243,0.311,0.365,0.483c0.121,0.172,0.226,0.338,0.314,0.497c0.088,0.159,0.133,0.28,0.133,0.364
		c0,0.112-0.023,0.227-0.07,0.343c-0.047,0.117-0.104,0.22-0.175,0.308c-0.069,0.089-0.151,0.161-0.245,0.217
		c-0.093,0.056-0.187,0.084-0.279,0.084c-0.047,0-0.099-0.009-0.154-0.028c-0.158-0.046-0.287-0.128-0.385-0.245
		c-0.098-0.116-0.199-0.245-0.301-0.385c0-0.009-0.031-0.051-0.092-0.126s-0.131-0.156-0.21-0.245
		c-0.079-0.088-0.151-0.172-0.217-0.252c-0.065-0.079-0.107-0.128-0.126-0.147c-0.158-0.224-0.287-0.394-0.385-0.511
		c-0.098-0.116-0.189-0.221-0.273-0.315c-0.084-0.093-0.175-0.189-0.273-0.287c-0.098-0.098-0.226-0.236-0.385-0.413
		c-0.345,0.187-0.639,0.359-0.882,0.518c-0.242,0.159-0.464,0.301-0.665,0.427c-0.2,0.126-0.396,0.24-0.588,0.343
		c-0.191,0.103-0.408,0.196-0.65,0.28c-0.225-0.009-0.408-0.037-0.554-0.084c-0.145-0.046-0.257-0.105-0.336-0.175
		c-0.079-0.07-0.136-0.147-0.168-0.231c-0.032-0.084-0.049-0.168-0.049-0.252c0-0.103,0.017-0.196,0.049-0.28
		s0.059-0.145,0.077-0.182c0.027-0.037,0.077-0.084,0.146-0.14c0.07-0.056,0.143-0.114,0.217-0.175
		c0.076-0.061,0.15-0.117,0.225-0.168s0.136-0.091,0.182-0.119c0.327-0.187,0.643-0.378,0.945-0.574
		c0.304-0.196,0.586-0.416,0.848-0.658c-0.196-0.28-0.348-0.487-0.455-0.623c-0.107-0.135-0.208-0.261-0.301-0.378
		c-0.094-0.117-0.206-0.252-0.336-0.406c-0.131-0.154-0.322-0.395-0.574-0.721c-0.121-0.177-0.248-0.338-0.379-0.483
		s-0.252-0.28-0.363-0.406c-0.112-0.126-0.203-0.242-0.273-0.35s-0.105-0.212-0.105-0.315
		C232.691,93.904,232.721,93.773,232.775,93.643z"/>
</g>
</svg>
